<?xml version="1.0" standalone="no"?>
<!DOCTYPE svg PUBLIC "-//W3C//DTD SVG 20010904//EN"
 "http://www.w3.org/TR/2001/REC-SVG-20010904/DTD/svg10.dtd">
<svg version="1.0" xmlns="http://www.w3.org/2000/svg"
 width="500.000000pt" height="500.000000pt" viewBox="0 0 500.000000 500.000000"
 preserveAspectRatio="xMidYMid meet">

<g transform="translate(0.000000,500.000000) scale(0.100000,-0.100000)"
fill="#000000" stroke="none">
<path d="M983 4554 c-265 -58 -458 -241 -530 -504 -17 -61 -18 -158 -18 -1590
0 -1432 1 -1529 18 -1590 65 -238 240 -414 482 -487 56 -16 152 -18 1520 -21
992 -2 1482 1 1529 8 128 20 278 93 354 173 54 55 82 92 82 104 0 7 5 12 12
10 20 -4 97 161 113 243 13 65 15 272 12 1590 -3 1691 3 1550 -73 1705 -85
174 -230 293 -429 352 -56 17 -151 18 -1535 20 -1220 1 -1486 -1 -1537 -13z
m1486 -524 c456 -41 828 -236 1075 -565 162 -217 270 -511 290 -796 4 -46 9
-107 12 -136 5 -51 5 -52 -28 -66 -51 -22 -168 -114 -215 -170 -57 -68 -107
-168 -128 -254 -10 -40 -21 -73 -24 -73 -4 0 -25 18 -46 40 -45 46 -42 49 -84
-72 -17 -46 -55 -135 -87 -198 -74 -151 -99 -219 -113 -309 -13 -81 -3 -186
25 -265 17 -48 20 -45 -95 -105 -143 -74 -279 -119 -459 -150 -98 -18 -171
-19 -884 -20 l-778 -1 0 29 c0 27 5 32 42 43 26 7 62 31 89 58 84 82 79 -14
79 1427 -1 1330 -1 1327 -44 1411 -21 40 -87 89 -132 98 -32 6 -34 9 -34 45
l0 39 713 0 c397 0 763 -5 826 -10z m1350 -1727 c-11 -32 -23 -92 -26 -133 -8
-106 14 -181 91 -315 85 -149 91 -167 91 -261 0 -72 -4 -87 -37 -155 -39 -78
-128 -179 -114 -129 54 196 47 253 -51 448 -47 94 -71 155 -79 201 -11 65 -11
66 -23 36 -16 -38 -9 -172 13 -275 35 -163 13 -243 -104 -376 -19 -23 -49 -66
-65 -95 -26 -47 -30 -64 -30 -129 0 -85 20 -132 82 -201 l36 -40 -29 11 c-166
64 -299 203 -339 355 -33 129 -17 227 69 400 35 72 69 147 77 168 7 20 16 37
20 37 4 0 12 -39 18 -87 7 -49 17 -106 24 -128 10 -35 16 -40 44 -43 28 -3 36
2 53 30 18 29 20 50 20 194 0 219 29 314 131 427 39 44 130 117 145 117 2 0
-6 -26 -17 -57z m269 -456 c7 -15 27 -52 47 -82 58 -91 114 -211 130 -278 57
-239 -57 -466 -288 -576 -49 -23 -91 -41 -93 -38 -2 2 26 35 62 73 97 101 150
184 190 296 19 52 30 201 19 254 l-8 39 -14 -64 c-37 -176 -124 -278 -293
-345 l-45 -17 41 43 c106 112 180 238 204 349 12 54 11 83 -6 327 -4 57 -2 92
7 114 l13 31 12 -49 c6 -27 16 -61 22 -77z"/>
<path d="M1735 3498 c-3 -7 -4 -479 -3 -1048 l3 -1035 345 0 c294 1 358 4 430
19 321 68 554 270 664 575 123 340 91 795 -74 1071 -142 239 -340 367 -644
420 -91 15 -715 13 -721 -2z"/>
</g>
</svg>
