<svg width="285" height="111" viewBox="0 0 285 111" fill="none" xmlns="http://www.w3.org/2000/svg">
<path d="M29.6621 50.9294H57.1271V61.9634H48.0867V109.694C42.7734 109.694 38.4911 104.63 38.4911 98.3475V61.9634H29.6621V50.9294Z" fill="#103595"/>
<path d="M54.9557 66.6H64.1515V87.4612C64.1515 91.5088 64.3859 94.3422 64.8548 95.9302C65.3237 97.5181 66.0792 98.7324 67.0951 99.6042C68.1111 100.476 69.4136 100.912 70.9245 100.912C72.4354 100.912 73.7119 100.476 74.7799 99.6042C75.848 98.7324 76.6295 97.487 77.1245 95.8056C77.5152 94.5602 77.6976 91.8825 77.6976 87.8036V66.6H86.7891V84.9391C86.7891 92.5052 86.2941 97.6738 85.2782 100.445C84.0538 103.839 82.2564 106.454 79.8858 108.26C77.5152 110.066 74.4934 111 70.8203 111C67.1472 111 63.6305 109.941 61.1817 107.824C58.733 105.707 57.0137 102.749 55.9977 98.9503C55.2944 96.3349 54.9297 91.54 54.9297 84.6278V66.6H54.9557Z" fill="#103595"/>
<path d="M152.705 60.2889L146.073 67.8781C141.563 62.1624 136.469 59.3045 130.818 59.3045C125.167 59.3045 122.036 61.2415 118.773 65.1472C115.51 69.053 113.865 73.8478 113.865 79.5635C113.865 85.2793 114.581 87.0892 116.04 90.1694C117.499 93.2495 119.516 95.6945 122.169 97.441C124.822 99.1875 127.74 100.077 130.977 100.077C134.214 100.077 136.256 99.4733 138.538 98.2349C140.82 96.9965 143.314 94.7737 146.046 91.503L152.493 99.5368C148.805 103.855 145.33 106.84 142.04 108.491C138.777 110.143 135.01 111 130.818 111C123.071 111 116.73 108.047 111.769 102.172C106.834 96.2979 104.367 88.7404 104.367 79.5635C104.367 70.3866 105.481 68.3226 107.736 63.6866C109.991 59.0505 113.202 55.3353 117.393 52.5409C121.585 49.7148 126.095 48.3176 130.95 48.3176C135.805 48.3176 139.016 49.3655 142.836 51.4295C146.63 53.4935 149.92 56.4784 152.679 60.2889H152.705Z" fill="#103595"/>
<path d="M181.005 66.4501H190.058V109.875H184.818C182.717 109.875 181.005 107.813 181.005 105.283C179.241 107.314 177.477 108.751 175.687 109.657C173.898 110.563 171.978 111 169.903 111C165.234 111 161.213 108.813 157.815 104.471C154.417 100.128 152.705 94.7233 152.705 88.2252C152.705 81.727 154.339 76.0099 157.634 71.7298C160.928 67.4498 164.923 65.2941 169.618 65.2941C174.313 65.2941 173.82 65.794 175.713 66.7625C177.607 67.7622 179.371 69.2305 180.979 71.1987V66.4188L181.005 66.4501ZM171.485 75.385C168.684 75.385 166.375 76.5722 164.508 78.9465C162.666 81.3209 161.732 84.3825 161.732 88.1002C161.732 91.8179 162.692 95.0045 164.637 97.4413C166.557 99.8469 169.203 101.097 171.952 100.972C174.598 100.847 176.803 99.6594 178.593 97.4101C180.46 95.0357 181.394 91.9116 181.394 88.0377C181.394 84.1638 180.46 81.1959 178.593 78.8528C176.725 76.5097 174.365 75.3538 171.485 75.3538V75.385Z" fill="#103595"/>
<path d="M217.144 71.9873L211.453 78.7449C209.135 76.0231 207.054 74.6778 205.157 74.6778C203.26 74.6778 203.313 74.9281 202.733 75.46C202.153 75.9918 201.864 76.6175 201.864 77.3996C201.864 78.1818 202.048 78.5259 202.417 79.0265C202.786 79.527 203.708 80.184 205.157 81.06L208.529 83.0623C212.086 85.1584 214.51 87.2545 215.827 89.4132C217.144 91.5718 217.803 94.1059 217.803 97.0155C217.803 99.925 216.617 104.117 214.22 106.683C211.822 109.279 208.634 110.562 204.603 110.562C200.573 110.562 194.987 108.09 191.799 103.116L197.464 95.7954C198.544 97.297 199.809 98.4859 201.258 99.4244C202.707 100.332 203.998 100.801 205.104 100.801C206.211 100.801 207.291 100.457 208.028 99.7686C208.766 99.0803 209.135 98.2669 209.135 97.3596C209.135 95.6702 207.791 94.0434 205.13 92.4478L202.022 90.602C196.094 87.0668 193.143 82.6243 193.143 77.2745C193.143 71.9247 194.249 70.8923 196.489 68.4521C198.728 66.0118 201.574 64.7917 205.051 64.7917C208.529 64.7917 209.662 65.4174 211.77 66.6688C213.877 67.9202 215.642 69.7035 217.118 72.0186L217.144 71.9873Z" fill="#7FBC03"/>
<path d="M204.603 111C199.15 111 194.75 108.435 191.483 103.366L191.272 103.054L197.464 95.0445L197.753 95.4512C198.807 96.8903 200.019 98.0791 201.415 98.9551C204.261 100.77 206.474 100.551 207.765 99.3306C208.423 98.7361 208.713 98.0791 208.713 97.297C208.713 95.8266 207.449 94.2936 204.919 92.7919L201.811 90.9461C195.751 87.317 192.695 82.7181 192.695 77.2119C192.695 71.7057 193.854 70.5794 196.173 68.0453C198.465 65.5425 201.442 64.2598 204.999 64.2598C208.555 64.2598 209.741 64.9168 211.901 66.1682C214.035 67.4196 215.879 69.2967 217.381 71.6431L217.592 71.956L211.374 79.3393L211.084 78.9952C208.871 76.3672 206.843 75.0532 205.078 75.0532C203.312 75.0532 203.391 75.2722 202.891 75.7415C202.417 76.1795 202.179 76.68 202.179 77.3057C202.179 77.9315 202.338 78.213 202.627 78.6197C202.864 78.9326 203.497 79.4957 205.262 80.5281L208.634 82.5304C212.217 84.6265 214.72 86.8165 216.09 89.0377C217.46 91.259 218.145 93.9182 218.145 96.9216C218.145 99.925 216.881 104.274 214.43 106.933C211.98 109.592 208.661 110.937 204.551 110.937L204.603 111ZM192.326 103.147C195.409 107.746 199.519 110.093 204.603 110.093C209.688 110.093 211.638 108.841 213.956 106.338C216.248 103.867 217.408 100.707 217.408 97.0154C217.408 93.3238 216.775 91.7595 215.511 89.6947C214.246 87.5986 211.822 85.5338 208.344 83.4689L204.972 81.4667C203.444 80.5907 202.522 79.8711 202.1 79.3393C201.653 78.7762 201.442 78.1192 201.442 77.3996C201.442 76.6801 201.784 75.6789 202.469 75.0845C203.128 74.4901 204.024 74.2085 205.13 74.2085C207.027 74.2085 209.161 75.5225 211.427 78.0879L216.591 71.956C215.221 69.8599 213.535 68.2331 211.611 67.0755C209.583 65.8867 207.37 65.2609 205.078 65.2609C201.705 65.2609 198.939 66.4498 196.779 68.7962C194.645 71.1426 193.564 73.9895 193.564 77.2745C193.564 82.374 196.489 86.7226 202.232 90.164L205.341 92.0098C208.186 93.6992 209.556 95.4512 209.556 97.3596C209.556 99.268 209.135 99.3305 208.292 100.144C206.737 101.583 204.208 101.865 201.073 99.8624C199.729 98.9864 198.517 97.8914 197.464 96.5462L192.326 103.179V103.147Z" fill="#7FBC03"/>
<path d="M244.702 71.9873L239.011 78.7449C236.693 76.0231 234.612 74.6778 232.715 74.6778C230.818 74.6778 230.87 74.9281 230.291 75.46C229.711 75.9918 229.421 76.6175 229.421 77.3996C229.421 78.1818 229.606 78.5259 229.975 79.0265C230.343 79.527 231.266 80.184 232.715 81.06L236.087 83.0623C239.644 85.1584 242.067 87.2545 243.385 89.4132C244.702 91.5718 245.361 94.1059 245.361 97.0155C245.361 99.925 244.175 104.117 241.778 106.683C239.38 109.279 236.192 110.562 232.161 110.562C228.13 110.562 222.545 108.09 219.357 103.116L225.022 95.7954C226.102 97.297 227.366 98.4859 228.815 99.4244C230.264 100.332 231.555 100.801 232.662 100.801C233.768 100.801 234.849 100.457 235.586 99.7686C236.324 99.0803 236.693 98.2669 236.693 97.3596C236.693 95.6702 235.349 94.0434 232.688 92.4478L229.579 90.602C223.652 87.0668 220.701 82.6243 220.701 77.2745C220.701 71.9247 221.807 70.8923 224.047 68.4521C226.286 66.0118 229.132 64.7917 232.609 64.7917C236.087 64.7917 237.22 65.4174 239.328 66.6688C241.435 67.9202 243.2 69.7035 244.676 72.0186L244.702 71.9873Z" fill="#7FBC03"/>
<path d="M232.161 111C226.708 111 222.308 108.435 219.041 103.366L218.83 103.054L225.022 95.0445L225.311 95.4512C226.365 96.8903 227.577 98.0791 228.974 98.9551C231.819 100.77 234.032 100.551 235.323 99.3306C235.982 98.7361 236.271 98.0791 236.271 97.297C236.271 95.8266 235.007 94.2936 232.478 92.7919L229.369 90.9461C223.309 87.317 220.253 82.7181 220.253 77.2119C220.253 71.7057 221.412 70.5794 223.731 68.0453C226.023 65.5425 229 64.2598 232.557 64.2598C236.113 64.2598 237.299 64.9168 239.459 66.1682C241.593 67.4196 243.438 69.2655 244.939 71.6431L245.15 71.956L238.932 79.3393L238.643 78.9952C236.429 76.3672 234.401 75.0532 232.636 75.0532C230.87 75.0532 230.95 75.2722 230.449 75.7415C229.975 76.1795 229.738 76.68 229.738 77.3057C229.738 77.9315 229.896 78.213 230.185 78.6197C230.423 78.9326 231.055 79.4957 232.82 80.5281L236.192 82.5304C239.775 84.6265 242.278 86.8165 243.648 89.0377C245.018 91.259 245.703 93.9182 245.703 96.9216C245.703 99.925 244.439 104.274 241.989 106.933C239.538 109.592 236.219 110.937 232.109 110.937L232.161 111ZM219.911 103.147C222.993 107.746 227.103 110.093 232.188 110.093C237.273 110.093 239.222 108.841 241.541 106.338C243.833 103.867 244.992 100.707 244.992 97.0154C244.992 93.3238 244.36 91.7595 243.095 89.6947C241.83 87.5986 239.407 85.5338 235.929 83.4689L232.557 81.4667C231.029 80.5907 230.106 79.8711 229.685 79.3393C229.237 78.7762 229.026 78.1192 229.026 77.3996C229.026 76.6801 229.369 75.6789 230.054 75.0845C230.712 74.4901 231.608 74.2085 232.715 74.2085C234.612 74.2085 236.746 75.5225 239.011 78.0879L244.175 71.956C242.805 69.8599 241.119 68.2331 239.196 67.0755C237.167 65.8867 234.954 65.2609 232.662 65.2609C229.29 65.2609 226.523 66.4498 224.363 68.7962C222.229 71.1426 221.149 73.9895 221.149 77.2745C221.149 82.374 224.073 86.7226 229.817 90.164L232.925 92.0098C235.771 93.6992 237.141 95.4512 237.141 97.3596C237.141 99.268 236.719 99.3305 235.876 100.144C234.322 101.583 231.793 101.865 228.657 99.8624C227.314 99.0177 226.102 97.8914 225.048 96.5462L219.911 103.179V103.147Z" fill="#7FBC03"/>
<path d="M275.218 66.4501H284.537V109.875H279.144C276.981 109.875 275.218 107.813 275.218 105.283C273.403 107.314 271.587 108.751 269.744 109.657C267.902 110.563 265.926 111 263.79 111C258.984 111 254.845 108.813 251.347 104.471C247.849 100.128 246.086 94.7233 246.086 88.2252C246.086 81.727 247.769 76.0099 251.16 71.7298C254.551 67.4498 258.663 65.2941 263.496 65.2941C268.329 65.2941 267.822 65.794 269.771 66.7625C271.72 67.7622 273.536 69.2305 275.192 71.1987V66.4188L275.218 66.4501ZM265.419 75.385C262.535 75.385 260.158 76.5722 258.236 78.9465C256.34 81.3209 255.379 84.3825 255.379 88.1002C255.379 91.8179 256.367 95.0045 258.369 97.4413C260.345 99.8469 263.069 101.097 265.899 100.972C268.623 100.847 270.893 99.6594 272.735 97.4101C274.658 95.0357 275.619 91.9116 275.619 88.0377C275.619 84.1638 274.658 81.1959 272.735 78.8528C270.813 76.5097 268.383 75.3538 265.419 75.3538V75.385Z" fill="#103595"/>
<path d="M89.9981 27.1244V38.8876C89.9718 38.8876 54.7735 0.688354 54.7735 0.688354L0.605957 54.2174C2.6873 56.3135 5.21652 57.6274 7.85112 58.2219V79.2143H13.6209C18.3895 79.2143 22.2624 74.6153 22.2624 68.9527V53.3101L54.6681 21.274L83.8595 53.404C89.6029 59.1604 98.5606 60.1616 104.33 54.4364L104.568 27.1869L89.9981 27.1244Z" fill="#F5A706"/>
<path d="M13.6209 79.6835H7.45593V58.5972C4.76864 57.9402 2.31845 56.5637 0.368845 54.5614L0 54.186L0.368845 53.8106L54.7471 0L55.0369 0.250278L89.5502 37.7613V26.5924C89.5766 26.5924 104.963 26.655 104.963 26.655L104.726 54.624L104.594 54.7804C98.9558 60.3492 89.7347 59.9112 83.596 53.748L54.6417 21.8684L22.6576 53.4977V68.9213C22.6576 74.8343 18.6003 79.6522 13.6209 79.6522V79.6835ZM8.27266 78.7449H13.6473C18.2051 78.7449 21.8936 74.365 21.8936 68.9526V53.091L22.0516 52.9346L54.7208 20.617L84.1756 53.0285C89.9454 58.8475 98.6133 59.3481 103.988 54.186L104.199 27.6249L90.4197 27.5623L90.367 39.92L54.7471 1.25141L1.23826 54.2173C3.10883 55.9693 5.42729 57.1894 7.93016 57.7525L8.24631 57.8151V78.7136H8.27266V78.7449Z" fill="#005187"/>
</svg>
