<svg width="324" height="109" viewBox="0 0 324 109" fill="none" xmlns="http://www.w3.org/2000/svg">
<path fill-rule="evenodd" clip-rule="evenodd" d="M0.217041 69.0041C14.3061 78.3074 23.4625 90.3309 33.3395 108.176C48.5533 69.9386 75.8292 32.5884 109.379 0C55.9756 36.9752 46.2217 57.3675 30.3693 81.6168C21.2891 75.2658 13.2809 70.0636 0.217041 69.0041Z" fill="#263471"/>
<path d="M0 71.7777V108.562H30.8201C22.3081 93.295 13.679 81.1406 0 71.7777Z" fill="#F5A706"/>
<path d="M29.7188 78.2358C30.8143 76.5395 31.8922 74.855 32.9584 73.1824C40.328 61.647 47.4868 50.4509 60.1171 37.3203H0V66.5576L0.410076 66.5933C12.8119 67.5992 20.662 72.0158 29.7188 78.2358Z" fill="#F5A706"/>
<path d="M70.1114 108.557V48.2905C55.419 68.1768 43.8139 88.4918 35.7646 108.557H70.1114Z" fill="#F5A706"/>
<path d="M89.4253 91.8734L89.9732 83.483L90.6867 67.0987L90.9878 55.4971C91.0058 54.2505 91.0149 53.0075 91.0149 51.7609C91.0149 50.8215 91.0058 49.282 90.9878 47.1389C93.4203 47.2031 95.3711 47.2389 96.8463 47.2389C98.3214 47.2389 100.206 47.1889 102.675 47.0924C105.143 46.9924 107.233 46.946 108.949 46.946C111.417 46.946 113.245 47.1317 114.434 47.5032C115.623 47.8747 116.695 48.4605 117.652 49.257C118.609 50.0535 119.401 50.9894 120.027 52.0574C120.654 53.1289 121.123 54.347 121.436 55.7114C121.749 57.0759 121.906 58.4689 121.906 59.8905C121.906 62.8195 121.307 65.4949 120.112 67.9202C118.913 70.3455 117.231 72.1601 115.057 73.3602C112.883 74.5604 110.445 75.164 107.738 75.164C106.745 75.164 105.592 75.0319 104.285 74.7711C104.138 73.7674 103.861 72.2708 103.457 70.2812C103.051 68.2917 102.72 66.8201 102.464 65.8556C103.274 66.0521 104.12 66.1521 105.005 66.1521C106.865 66.1521 108.25 65.6235 109.162 64.5626C110.075 63.5018 110.529 62.2087 110.529 60.6799C110.529 59.937 110.427 59.2762 110.225 58.6975C110.023 58.1189 109.701 57.6438 109.259 57.2723C108.816 56.9009 108.328 56.6616 107.796 56.5508C107.263 56.4401 106.655 56.3865 105.971 56.3865C105.288 56.3865 104.616 56.408 103.9 56.4508L101.579 56.6473C101.341 60.8657 101.16 65.552 101.031 70.7063C100.793 80.1004 100.676 85.7369 100.676 87.6157V91.877L95.1754 91.8127C94.4017 91.8127 92.484 91.8341 89.4253 91.877V91.8734Z" fill="black"/>
<path d="M147.794 81.9756C147.553 83.2865 147.092 86.4548 146.412 91.4804C144.274 91.9841 142.48 92.3162 141.026 92.4806C139.572 92.6449 138.097 92.727 136.607 92.727C134.415 92.727 132.398 92.5484 130.558 92.1877C128.716 91.8269 127.129 91.1875 125.793 90.2731C124.456 89.3551 123.339 88.2157 122.436 86.8512C121.533 85.4868 120.846 83.8651 120.377 81.9899C119.907 80.111 119.672 78.1822 119.672 76.1927C119.672 73.3994 120.142 70.6634 121.081 67.9916C122.021 65.3162 123.231 63.2267 124.712 61.7229C126.193 60.2155 127.903 59.1475 129.836 58.5153C131.769 57.8831 133.75 57.5652 135.776 57.5652C137.802 57.5652 139.879 57.8545 141.785 58.4332C143.69 59.0118 145.307 60.0227 146.632 61.4657C147.956 62.9088 148.902 64.534 149.462 66.3485C150.022 68.163 150.305 70.1169 150.305 72.2136C150.305 73.4602 150.184 74.8461 149.946 76.3748L130.583 76.407C130.564 76.7535 130.555 77.0714 130.555 77.3535C130.555 79.7039 131.263 81.4326 132.684 82.5435C134.102 83.6544 135.833 84.208 137.877 84.208C139.093 84.208 140.478 84.0402 142.035 83.7008C143.591 83.3615 145.509 82.79 147.794 81.9792V81.9756ZM130.805 71.392H139.921C139.939 71.0206 139.948 70.7027 139.948 70.4419C139.948 69.306 139.777 68.3345 139.437 67.5236C139.096 66.7164 138.609 66.127 137.973 65.7556C137.338 65.3841 136.625 65.1983 135.833 65.1983C135.282 65.1983 134.746 65.3019 134.231 65.5091C133.716 65.7163 133.25 66.0235 132.837 66.4271C132.422 66.8307 132.079 67.2951 131.802 67.8201C131.525 68.3452 131.323 68.8524 131.194 69.3453C131.064 69.8383 130.935 70.5205 130.808 71.392H130.805Z" fill="black"/>
<path d="M151.497 95.938C153.872 96.8989 155.961 97.5704 157.768 97.9526C159.571 98.3348 161.145 98.5277 162.491 98.5277C163.467 98.5277 164.352 98.4026 165.143 98.149C165.935 97.899 166.57 97.5847 167.049 97.2168C167.528 96.8453 167.937 96.3738 168.277 95.8059C168.618 95.2379 168.88 94.6057 169.063 93.9056C169.247 93.2055 169.376 92.3983 169.449 91.4803C169.521 90.5623 169.587 89.2943 169.641 87.6798C168.922 88.4442 168.302 89.055 167.778 89.5157C167.254 89.9729 166.604 90.4159 165.83 90.8445C165.056 91.2696 164.213 91.5982 163.304 91.8268C162.392 92.0554 161.431 92.1697 160.417 92.1697C158.078 92.1697 155.97 91.5267 154.092 90.2373C152.213 88.9478 150.813 87.1476 149.892 84.8294C148.971 82.5148 148.51 80.0109 148.51 77.3248C148.51 74.1565 149.007 71.2955 150 68.738C150.994 66.1805 152.415 64.0195 154.263 62.2478C156.112 60.4797 158.141 59.2546 160.348 58.5759C162.554 57.9008 165.059 57.5615 167.856 57.5615C169.458 57.5615 171.273 57.6758 173.305 57.9044C175.337 58.133 178.131 58.6295 181.68 59.3939L181.027 70.2096L180.455 82.0719C180.419 82.9256 180.401 83.6221 180.401 84.1686L180.184 94.82C180.148 96.1738 180.009 97.4632 179.769 98.6884C179.567 99.8028 179.227 100.839 178.748 101.803C178.269 102.764 177.679 103.607 176.981 104.325C176.207 105.111 175.343 105.736 174.386 106.193C173.41 106.672 172.26 107.068 170.933 107.372C169.497 107.679 167.997 107.829 166.432 107.829C165.547 107.829 164.463 107.779 163.175 107.682C161.886 107.582 160.564 107.436 159.21 107.24C157.855 107.043 156.687 106.836 155.702 106.618C154.718 106.4 153.472 106.082 151.96 105.668L151.768 101.342C151.75 100.51 151.656 98.7098 151.491 95.9345L151.497 95.938ZM170.442 67.5914C169.304 67.3306 168.283 67.1985 167.383 67.1985C165.731 67.1985 164.304 67.5771 163.099 68.3308C161.895 69.0844 160.965 70.2132 160.303 71.7134C159.64 73.2136 159.312 74.7745 159.312 76.3926C159.312 77.5749 159.487 78.6714 159.836 79.6751C160.185 80.6824 160.763 81.4754 161.57 82.0576C162.377 82.6362 163.232 82.9291 164.132 82.9291C165.454 82.9291 166.631 82.3612 167.657 81.2218C168.687 80.0823 169.391 78.5286 169.78 76.5569C170.165 74.5852 170.385 71.5991 170.442 67.5914Z" fill="black"/>
<path d="M198.371 57.5615C200.653 57.5615 202.85 57.9758 204.958 58.8081C207.065 59.6403 208.847 60.8333 210.301 62.3978C211.755 63.9588 212.827 65.784 213.52 67.87C214.209 69.956 214.555 72.2027 214.555 74.603C214.555 77.0034 214.248 79.1643 213.631 81.2718C213.014 83.3792 211.969 85.358 210.497 87.2047C209.025 89.0514 207.149 90.4337 204.876 91.3517C202.603 92.2697 200.195 92.7269 197.654 92.7269C195.315 92.7269 193.069 92.3233 190.913 91.516C188.758 90.7088 186.958 89.5265 185.513 87.9762C184.068 86.426 182.981 84.5687 182.252 82.4041C181.524 80.2395 181.162 77.9678 181.162 75.5889C181.162 73.21 181.518 70.9347 182.225 68.7737C182.933 66.6091 184.058 64.666 185.594 62.9408C187.132 61.2155 189.032 59.8868 191.299 58.9581C193.563 58.0294 195.92 57.5651 198.371 57.5651V57.5615ZM198.178 67.1985C197.001 67.1985 195.95 67.5592 195.029 68.2808C194.108 69.0023 193.412 70.056 192.943 71.4419C192.473 72.8278 192.238 74.3423 192.238 75.9818C192.238 78.3857 192.744 80.2252 193.758 81.504C194.77 82.7827 196.04 83.4221 197.57 83.4221C198.729 83.4221 199.77 83.0577 200.692 82.3255C201.613 81.5932 202.308 80.511 202.778 79.0822C203.248 77.6499 203.482 76.1175 203.482 74.478C203.482 73.1243 203.299 71.8991 202.932 70.8061C202.564 69.7131 201.959 68.838 201.122 68.1843C200.285 67.5307 199.304 67.2021 198.181 67.2021L198.178 67.1985Z" fill="black"/>
<path d="M213.703 91.8733L214.387 85.2546L216.085 62.2801L216.934 47.1388C220.333 47.1816 223.003 47.2031 224.945 47.2031C226.552 47.2031 229.009 47.1816 232.318 47.1388C232.555 49.0176 232.757 50.4428 232.923 51.4143C233.088 52.3859 233.498 54.2861 234.148 57.1151C234.801 59.944 235.322 62.3908 235.719 64.4554C236.114 66.5199 236.707 70.0525 237.496 75.0568C238.309 71.6277 239.046 68.6773 239.708 66.2092C240.371 63.741 241.202 60.9335 242.198 57.7866C243.195 54.6398 243.827 52.5823 244.095 51.6108C244.363 50.6392 244.727 49.1462 245.188 47.1388C247.948 47.1816 250.658 47.2031 253.307 47.2031C255.11 47.2031 257.615 47.1816 260.821 47.1388C260.472 54.5005 260.24 60.8263 260.132 66.1127C259.891 76.4677 259.774 83.59 259.774 87.4799C259.774 88.2871 259.792 89.7516 259.828 91.8697C257.398 91.8269 255.694 91.8054 254.719 91.8054C253.301 91.8054 251.561 91.8269 249.499 91.8697C249.649 89.9052 249.836 85.2224 250.059 77.8286C250.284 70.4347 250.396 65.7091 250.396 63.6553C250.396 62.7587 250.378 61.5157 250.342 59.919L246.717 73.2565L241.515 91.8697C239.121 91.8269 237.472 91.8054 236.571 91.8054C235.43 91.8054 233.681 91.8269 231.324 91.8697L227.919 73.8459L225.926 64.2446C225.851 63.8731 225.77 63.4159 225.676 62.8694C225.583 62.3229 225.436 61.3621 225.234 59.9869L224.538 69.0631L223.62 87.6763L223.536 91.8697C220.995 91.8269 219.375 91.8054 218.674 91.8054C217.716 91.8054 216.058 91.8269 213.7 91.8697L213.703 91.8733Z" fill="black"/>
<path d="M264.057 67.9523C264.406 65.7877 264.626 64.2982 264.72 63.4803C264.813 62.6623 264.957 61.3764 265.162 59.6297C270.467 58.2546 275.025 57.5652 278.836 57.5652C281.01 57.5652 283 57.8545 284.803 58.4332C286.609 59.0118 288.018 59.9476 289.03 61.2335C290.041 62.523 290.55 64.3697 290.55 66.7736C290.55 67.9987 290.411 70.7491 290.137 75.0318C289.861 79.3145 289.65 84.9295 289.505 91.8769C287.699 91.834 285.905 91.8126 284.116 91.8126C282.328 91.8126 280.543 91.834 278.589 91.8769C278.839 89.473 279.119 84.5152 279.426 76.9999C278.728 77.3928 278.183 77.6786 277.785 77.8536C277.391 78.0286 276.695 78.2894 275.705 78.6394C274.715 78.9895 273.938 79.2824 273.378 79.5253C272.818 79.7646 272.33 80.0718 271.918 80.4432C271.505 80.8147 271.21 81.1969 271.036 81.5898C270.861 81.9827 270.774 82.4221 270.774 82.9007C270.774 83.6437 271.024 84.2759 271.52 84.801C272.017 85.326 272.809 85.5868 273.896 85.5868C274.281 85.5868 274.696 85.5475 275.139 85.4725C275.582 85.3975 276.19 85.2046 276.963 84.8974C276.431 86.5798 275.795 89.0372 275.058 92.2698C273.474 92.577 271.972 92.727 270.557 92.727C268.275 92.727 266.372 92.3484 264.852 91.5947C263.332 90.8411 262.164 89.623 261.345 87.9407C260.526 86.2583 260.116 84.5759 260.116 82.8936C260.116 81.8684 260.267 80.8612 260.571 79.8789C260.875 78.8966 261.348 77.9358 261.992 76.9963C262.636 76.0569 263.392 75.2533 264.256 74.5889C265.12 73.9209 266.303 73.2958 267.805 72.7029C269.305 72.1135 271.204 71.5563 273.507 71.0313C274.465 70.8134 275.344 70.5776 276.145 70.3276C276.945 70.0776 277.514 69.8597 277.858 69.6739C278.198 69.4882 278.475 69.2703 278.685 69.0203C278.896 68.7702 279.05 68.5059 279.14 68.2345C279.233 67.963 279.278 67.6737 279.278 67.3665C279.278 66.5378 278.983 65.8984 278.396 65.4484C277.806 65.0019 276.942 64.7769 275.801 64.7769C272.634 64.7769 268.724 65.8377 264.069 67.9559L264.057 67.9523Z" fill="black"/>
<path d="M288.09 91.8733L294.388 81.9434L299.058 74.3388L290.384 58.4117C293.073 58.4545 295.385 58.476 297.318 58.476C299.747 58.476 301.746 58.4545 303.312 58.4117L306.241 65.9162C306.424 66.3734 306.692 67.0843 307.042 68.0451C308.46 65.1626 310.136 61.9479 312.069 58.4117C313.707 58.4545 315.67 58.476 317.952 58.476C320.068 58.476 322.085 58.4545 324 58.4117L319.581 65.2947C318.713 66.6485 316.865 69.6203 314.029 74.2102C315.724 77.6857 318.816 83.5722 323.311 91.8733C321.23 91.8304 319.177 91.809 317.151 91.809C314.682 91.809 312.473 91.8304 310.522 91.8733C309.324 88.8157 308.408 86.5547 307.773 85.0902C307.138 83.6257 306.599 82.2827 306.157 81.0575L305.271 82.8614C304.994 83.4079 304.57 84.2151 304.001 85.2867L300.494 91.8733C298.504 91.8304 296.571 91.809 294.692 91.809C292.519 91.809 290.318 91.8304 288.09 91.8733Z" fill="black"/>
</svg>
