<?xml version="1.0" standalone="no"?>
<!DOCTYPE svg PUBLIC "-//W3C//DTD SVG 20010904//EN"
 "http://www.w3.org/TR/2001/REC-SVG-20010904/DTD/svg10.dtd">
<svg version="1.0" xmlns="http://www.w3.org/2000/svg"
 width="500.000000pt" height="500.000000pt" viewBox="0 0 500.000000 500.000000"
 preserveAspectRatio="xMidYMid meet">

<g transform="translate(0.000000,500.000000) scale(0.100000,-0.100000)"
fill="#000000" stroke="none">
<path d="M1830 3298 c-23 -9 -70 -14 -160 -17 -63 -2 -66 -10 -41 -91 21 -66
22 -78 11 -131 -12 -58 -13 -59 -46 -59 -33 0 -34 -1 -34 -40 0 -39 1 -40 34
-40 19 0 37 6 40 13 3 6 4 -1 3 -17 -2 -24 -8 -31 -34 -38 -35 -9 -46 -41 -18
-52 8 -3 15 -15 15 -26 0 -11 7 -20 15 -20 10 0 15 -10 15 -26 0 -26 -1 -27
-45 -21 -39 6 -45 4 -45 -12 0 -52 128 -91 300 -91 98 0 310 -25 383 -44 174
-48 154 -46 570 -46 l398 0 102 34 c129 43 274 63 347 47 64 -14 75 -8 26 13
-161 67 -400 61 -721 -18 -55 -14 -101 -23 -103 -21 -9 9 32 55 49 55 18 0 26
17 31 65 1 11 -3 46 -11 79 -9 42 -18 60 -32 63 -11 3 -22 17 -25 32 -10 51
-19 59 -86 86 -35 14 -38 18 -38 55 0 35 -4 42 -27 52 -16 7 -35 21 -44 32
-20 23 -118 43 -266 52 -100 7 -103 8 -103 31 0 13 -4 22 -9 19 -5 -3 -7 -15
-4 -26 9 -33 -37 -25 -82 14 -98 85 -277 131 -365 94z m209 -24 c73 -25 105
-44 93 -56 -8 -8 -27 -5 -64 10 -82 32 -127 42 -198 42 -46 0 -61 3 -50 10 24
15 170 12 219 -6z m-290 -6 c-2 -2 -17 -14 -32 -28 -19 -17 -26 -19 -22 -8 5
13 2 16 -17 12 -20 -5 -21 -4 -5 6 9 6 21 9 26 5 5 -3 12 -1 16 5 3 5 13 10
22 10 9 0 14 -1 12 -2z m-65 -120 c3 -46 6 -126 6 -180 l-1 -96 86 -7 c87 -7
106 -18 105 -57 -1 -7 -7 -1 -15 13 -13 24 -20 26 -111 32 -53 4 -98 8 -99 9
-1 2 2 41 7 88 9 81 5 180 -8 248 -5 24 -3 32 8 32 12 0 17 -19 22 -82z m176
63 c115 -26 116 -26 76 -74 l-23 -29 -52 22 c-48 21 -63 41 -41 55 6 3 10 12
10 18 -1 12 -26 -16 -32 -35 -2 -5 -22 -2 -45 7 -38 15 -41 19 -30 37 13 21
42 21 137 -1z m305 -21 c4 -6 11 -8 16 -5 11 7 41 -20 32 -29 -4 -3 50 -6 118
-6 132 0 295 -21 313 -41 8 -8 6 -10 -9 -6 -37 10 -240 29 -275 25 l-35 -3 3
-50 c2 -27 7 -53 10 -57 4 -4 65 -10 135 -12 69 -3 143 -8 163 -12 l37 -7 -7
47 c-6 38 -5 46 9 46 13 0 15 -9 13 -47 l-3 -46 45 -16 c94 -34 105 -43 108
-86 2 -21 1 -54 -3 -72 l-6 -33 -110 0 -109 0 -43 44 c-50 52 -117 76 -213 76
-56 0 -65 -3 -83 -26 -18 -23 -26 -25 -56 -20 l-35 7 -2 77 -2 77 -5 -74 c-6
-72 -18 -95 -37 -69 -12 15 5 328 17 328 4 0 11 -5 14 -10z m-116 -45 c23 -14
49 -25 57 -25 19 0 18 -3 -16 -53 -16 -25 -31 -51 -31 -58 -1 -8 -4 -1 -8 15
-5 23 -16 32 -56 48 -67 26 -71 31 -44 67 27 37 41 38 98 6z m-269 -96 c0 -16
-2 -29 -5 -29 -7 0 -65 88 -65 100 0 6 16 -1 35 -16 26 -19 35 -34 35 -55z
m860 12 c5 -11 10 -27 10 -36 0 -24 -54 -16 -58 8 -9 44 28 65 48 28z m-747
-81 c2 -19 3 -37 1 -39 -2 -2 -26 11 -53 30 -43 29 -51 39 -51 66 l0 33 49
-27 c42 -24 50 -33 54 -63z m-108 -20 l39 -40 -42 0 -42 0 0 40 c0 22 1 40 3
40 2 0 21 -18 42 -40z m190 18 c36 -17 47 -29 55 -57 5 -19 7 -37 5 -39 -2 -3
-30 6 -60 18 -39 16 -60 31 -66 47 -22 58 -6 66 66 31z m562 -149 c12 -7 24
-18 27 -25 4 -11 -3 -13 -37 -8 -44 7 -77 28 -77 50 0 14 45 5 87 -17z m347
-32 c-3 -9 -15 -17 -25 -17 -23 0 -24 8 -2 32 19 21 37 10 27 -15z m-917 -17
c-11 -38 -37 -56 -37 -26 0 28 20 66 33 66 12 0 12 -7 4 -40z m43 10 c-5 -10
-10 -28 -10 -40 0 -13 -5 -20 -12 -17 -16 5 -14 53 3 73 16 19 31 7 19 -16z
m-295 -3 c12 -19 13 -30 4 -55 -6 -17 -17 -33 -24 -36 -22 -8 -45 22 -45 58 0
55 38 74 65 33z m341 7 c-3 -9 -9 -27 -12 -40 -6 -22 -34 -35 -34 -15 0 25 24
71 37 71 10 0 13 -6 9 -16z m-218 -6 c16 -16 15 -70 -2 -93 -31 -42 -78 21
-56 75 13 31 37 39 58 18z m262 3 c0 -19 -23 -71 -31 -71 -10 0 -12 40 -3 64
6 17 34 23 34 7z m255 3 c47 -18 55 -119 13 -156 -62 -53 -149 26 -118 107 18
47 59 66 105 49z m-135 -25 c0 -5 -11 -9 -25 -9 -14 0 -25 6 -25 14 0 9 8 12
25 8 14 -2 25 -8 25 -13z m590 -20 c55 -1 84 -4 70 -8 -35 -10 -40 -41 -6 -41
34 0 34 -26 0 -33 -30 -5 -343 1 -391 9 -35 5 -53 28 -53 65 l0 22 143 -6 c78
-4 185 -7 237 -8z m-617 -6 c-7 -2 -21 -2 -30 0 -10 3 -4 5 12 5 17 0 24 -2
18 -5z m15 -31 c3 -9 -3 -13 -19 -10 -12 1 -24 9 -27 16 -3 9 3 13 19 10 12
-1 24 -9 27 -16z m1109 -78 c-3 -3 -12 -4 -19 -1 -8 3 -5 6 6 6 11 1 17 -2 13
-5z m-97 -28 c0 -2 -9 -6 -20 -9 -11 -3 -18 -1 -14 4 5 9 34 13 34 5z m-105
-26 c-3 -5 -18 -10 -33 -9 l-27 1 25 8 c35 11 42 11 35 0z"/>
<path d="M2205 3074 c-3 -26 -3 -50 2 -54 4 -4 30 -11 57 -15 l49 -7 -7 53
c-4 29 -9 56 -12 61 -3 4 -22 8 -43 8 -38 0 -39 -1 -46 -46z"/>
<path d="M2550 2950 c8 -5 20 -10 25 -10 6 0 3 5 -5 10 -8 5 -19 10 -25 10 -5
0 -3 -5 5 -10z"/>
<path d="M2604 2870 l1 -75 107 -3 107 -4 6 35 c4 18 5 47 3 63 -3 26 -7 29
-41 32 -22 2 -35 7 -31 13 4 7 -11 8 -42 4 -99 -13 -94 -8 -96 -78 l-2 -62 -6
75 -7 75 1 -75z"/>
<path d="M1666 2772 c-9 -27 3 -54 23 -50 22 5 22 62 -1 66 -9 2 -19 -5 -22
-16z"/>
<path d="M1797 2773 c-13 -12 -7 -61 7 -66 21 -8 39 19 32 48 -6 24 -25 33
-39 18z"/>
<path d="M2298 2759 c-13 -7 -18 -22 -18 -50 0 -32 4 -41 25 -51 21 -9 28 -8
45 7 25 23 26 67 2 88 -21 19 -30 20 -54 6z"/>
<path d="M2490 2726 c0 -8 15 -17 36 -21 40 -7 49 -3 41 20 -8 20 -77 21 -77
1z"/>
<path d="M2670 2715 c0 -25 1 -26 58 -23 49 3 57 6 57 23 0 17 -8 20 -57 23
-57 3 -58 2 -58 -23z"/>
<path d="M1442 2724 c-35 -24 -31 -85 9 -118 17 -14 43 -29 57 -32 50 -11 47
-12 -20 -13 -36 -1 -74 2 -83 5 -24 10 -46 60 -40 91 5 25 4 24 -10 -6 -23
-50 -19 -76 15 -105 l31 -25 197 5 c108 4 262 9 342 13 126 6 141 8 110 18
-31 10 -32 11 -10 13 60 6 -74 19 -194 19 -185 1 -302 25 -337 67 -13 16 -12
16 19 0 46 -23 171 -46 245 -45 55 1 50 3 -48 14 -60 8 -121 17 -135 21 -44
13 -80 44 -80 70 0 29 -33 33 -68 8z m511 -151 c-18 -2 -48 -2 -65 0 -18 2 -4
4 32 4 36 0 50 -2 33 -4z"/>
<path d="M1968 2603 c7 -3 16 -2 19 1 4 3 -2 6 -13 5 -11 0 -14 -3 -6 -6z"/>
<path d="M3495 2594 c-22 -2 -58 -8 -80 -14 -22 -5 -63 -15 -92 -21 -29 -7
-50 -16 -47 -21 3 -4 56 -8 119 -8 65 0 116 -4 120 -10 4 -6 20 -3 43 9 56 28
159 44 210 33 52 -12 54 -7 5 14 -38 16 -196 26 -278 18z"/>
<path d="M2130 2560 c34 -11 60 -11 35 0 -11 5 -29 8 -40 8 -16 0 -15 -2 5 -8z"/>
<path d="M1520 2496 l-75 -11 -12 -85 c-7 -47 -17 -121 -23 -165 -6 -44 -16
-111 -22 -148 -5 -38 -8 -70 -6 -73 4 -3 119 23 125 30 1 1 8 36 14 78 l11 76
57 4 c70 5 122 30 145 68 18 32 33 152 23 192 -12 48 -79 57 -237 34z m118
-116 c3 -59 -15 -92 -57 -102 -18 -5 -35 -8 -36 -6 -9 9 15 142 27 150 7 4 24
7 38 6 22 -3 25 -8 28 -48z"/>
<path d="M2123 2491 c-48 -12 -78 -35 -97 -75 -21 -45 -39 -191 -28 -231 16
-58 107 -80 217 -52 l50 13 12 85 c6 46 12 90 12 97 1 8 -18 12 -63 12 -58 0
-64 -2 -70 -22 -10 -38 -7 -58 9 -58 10 0 15 -10 15 -31 0 -29 -2 -30 -37 -27
-34 3 -38 6 -41 33 -1 17 4 59 11 95 17 81 35 93 123 84 l61 -6 6 38 c4 21 5
39 4 40 -8 8 -157 12 -184 5z"/>
<path d="M2425 2491 c-74 -18 -98 -53 -116 -173 -14 -87 -7 -138 22 -164 30
-27 172 -27 212 0 45 30 66 85 74 185 5 74 3 94 -10 115 -26 39 -106 55 -182
37z m83 -131 c1 -30 -3 -75 -11 -100 -12 -42 -15 -45 -47 -45 -33 0 -35 2 -38
38 -4 45 14 135 30 154 6 8 23 13 37 11 24 -3 26 -7 29 -58z"/>
<path d="M1828 2483 c-27 -3 -37 -9 -41 -26 -13 -52 -50 -348 -44 -353 4 -4
211 14 224 20 0 1 4 18 8 39 l8 39 -62 -4 -62 -3 3 35 c3 34 5 35 51 42 58 8
55 6 63 48 l7 33 -52 -6 -52 -6 3 32 c3 31 4 32 63 37 l60 5 6 38 6 37 -76 -2
c-42 -1 -92 -3 -113 -5z"/>
<path d="M2656 2448 c-19 -145 -37 -266 -41 -285 -5 -21 -2 -23 44 -23 57 0
56 -1 67 103 3 38 10 65 14 60 4 -4 17 -38 30 -75 12 -38 26 -68 30 -68 5 0
28 33 52 73 38 64 43 69 46 45 2 -15 -2 -53 -7 -84 -6 -32 -9 -59 -7 -62 3 -2
49 -6 103 -9 l99 -6 13 32 c12 29 17 31 61 31 l47 0 7 -40 c9 -56 43 -56 80 1
29 43 29 43 6 194 -5 33 -12 81 -15 108 l-6 47 -68 0 -68 0 -76 -172 c-76
-172 -77 -173 -71 -113 3 33 9 83 14 110 5 28 12 78 15 113 l7 62 -60 0 -61 0
-42 -77 -42 -77 -22 75 -21 74 -61 3 -62 3 -5 -43z m539 -185 c-4 -12 -45 -6
-45 6 0 4 8 30 17 57 l17 49 8 -50 c4 -27 6 -55 3 -62z"/>
<path d="M3350 2482 c0 -4 16 -47 35 -95 19 -48 35 -91 35 -95 0 -5 -30 -48
-66 -97 -69 -90 -71 -104 -17 -105 12 0 28 -3 37 -6 10 -4 26 12 52 50 20 31
39 55 41 53 1 -2 14 -30 27 -62 23 -58 25 -59 77 -72 66 -15 89 -16 89 -3 0 5
-11 33 -24 62 -13 29 -36 81 -50 116 l-25 63 69 91 c39 50 70 95 70 99 0 5
-24 9 -54 9 -54 0 -54 0 -92 -52 l-37 -52 -20 52 -20 52 -63 0 c-35 0 -64 -4
-64 -8z"/>
<path d="M3386 2005 c-91 -84 -298 -175 -491 -214 -181 -38 -225 -46 -370 -70
-399 -66 -779 -10 -998 146 -42 29 -47 31 -36 11 73 -138 256 -225 594 -280
104 -17 590 -17 695 0 41 7 104 17 140 23 282 47 561 191 651 335 18 30 26 34
67 35 47 1 47 1 12 9 -19 4 -59 13 -89 19 -30 6 -68 18 -84 26 -17 8 -31 15
-31 15 -1 -1 -28 -25 -60 -55z m-11 -93 c-41 -35 -97 -73 -101 -69 -3 3 18 21
48 41 49 34 74 47 53 28z m-185 -112 c0 -5 -1 -10 -2 -10 -2 0 -26 -9 -55 -20
-29 -11 -54 -16 -57 -11 -3 5 18 18 47 29 63 24 67 25 67 12z m-219 -76 c0 -8
-84 -33 -113 -34 -40 -1 -14 18 45 32 63 15 69 16 68 2z m-251 -54 c0 -5 -3
-10 -8 -10 -4 0 -45 -5 -91 -10 -55 -7 -87 -8 -94 -1 -10 10 21 18 98 24 82 7
95 7 95 -3z"/>
<path d="M1550 2026 c-14 -8 -52 -19 -84 -25 -74 -14 -83 -21 -26 -21 38 0 49
-5 79 -38 89 -95 216 -159 399 -199 58 -13 127 -17 282 -17 211 -1 283 7 435
47 88 23 210 71 160 63 -147 -24 -216 -29 -390 -30 -358 0 -607 63 -766 196
-52 42 -54 43 -89 24z"/>
<path d="M1944 2015 c-25 -26 -26 -52 -2 -82 15 -18 78 -17 78 1 0 10 -9 14
-27 13 -25 -2 -28 1 -28 28 0 24 4 30 22 30 29 1 41 14 23 25 -24 15 -39 12
-66 -15z"/>
<path d="M2077 2022 c-21 -23 -22 -75 -3 -91 8 -7 30 -11 48 -9 25 2 36 10 47
32 12 25 11 31 -6 55 -25 32 -63 38 -86 13z m62 -31 c13 -24 -9 -57 -33 -48
-23 9 -31 34 -16 52 17 20 37 19 49 -4z"/>
<path d="M2220 1980 c0 -33 4 -60 10 -60 6 0 10 14 10 30 0 17 4 30 8 30 4 0
16 -13 25 -30 30 -50 47 -39 47 30 0 33 -4 60 -10 60 -5 0 -10 -13 -10 -30 0
-16 -3 -30 -6 -30 -3 0 -17 14 -31 30 -13 17 -29 30 -34 30 -5 0 -9 -27 -9
-60z"/>
<path d="M2393 2025 c-16 -11 -23 -26 -23 -49 0 -42 19 -58 62 -54 39 4 40 23
0 23 -23 0 -27 4 -27 30 0 25 4 30 28 33 16 2 27 8 24 15 -6 18 -40 19 -64 2z"/>
<path d="M2510 1980 c0 -47 3 -60 15 -60 8 0 15 9 15 20 0 11 4 20 10 20 5 0
14 -9 20 -20 6 -11 17 -20 25 -20 18 0 19 12 4 27 -8 8 -7 16 2 31 19 30 -12
62 -58 62 l-33 0 0 -60z m63 15 c1 -5 -6 -11 -15 -13 -11 -2 -18 3 -18 13 0
17 30 18 33 0z"/>
<path d="M2650 1980 l0 -60 45 0 c48 0 63 16 20 22 -31 4 -34 22 -5 26 29 5
25 22 -5 22 -33 0 -32 18 2 22 48 6 39 28 -11 28 l-46 0 0 -60z"/>
<path d="M2770 2029 c0 -6 9 -13 20 -16 16 -4 20 -14 20 -49 0 -32 4 -44 15
-44 11 0 15 12 15 45 0 33 4 45 15 45 8 0 15 7 15 15 0 11 -12 15 -50 15 -30
0 -50 -4 -50 -11z"/>
<path d="M2920 2020 c-25 -25 -26 -62 -2 -83 39 -35 102 -9 102 41 0 28 -34
62 -60 62 -11 0 -29 -9 -40 -20z m68 -36 c4 -29 -23 -51 -43 -34 -16 13 -20
42 -8 54 14 14 48 1 51 -20z"/>
<path d="M3072 2028 c-20 -20 -14 -48 13 -60 14 -6 25 -15 25 -21 0 -5 -11 -6
-25 -3 -19 5 -25 2 -25 -9 0 -13 9 -15 38 -13 32 3 37 7 40 30 3 22 -2 29 -22
34 -30 7 -35 24 -7 24 26 0 35 16 15 24 -24 9 -39 7 -52 -6z"/>
<path d="M1825 1981 c-42 -5 -46 -7 -25 -13 45 -14 100 -10 100 7 0 8 -6 14
-12 13 -7 0 -35 -4 -63 -7z"/>
<path d="M3190 1976 c0 -12 10 -16 43 -15 23 0 51 4 62 9 16 7 12 9 -20 9 -22
1 -50 4 -62 7 -17 5 -23 2 -23 -10z"/>
</g>
</svg>
