<svg width="309" height="130" viewBox="0 0 309 130" fill="none" xmlns="http://www.w3.org/2000/svg">
<path d="M32.7537 46.8534H62.4751V57.0754H52.6919V101.294C46.9421 101.294 42.308 96.6026 42.308 90.7821V57.0754H32.7537V46.8534Z" fill="#103595"/>
<path d="M59.1282 61.0137H69.2261V80.4153C69.2261 84.1798 69.4835 86.8149 69.9984 88.2918C70.5133 89.7686 71.3429 90.898 72.4585 91.7088C73.5741 92.5196 75.0044 92.925 76.6636 92.925C78.3227 92.925 79.7244 92.5196 80.8972 91.7088C82.0701 90.898 82.9282 89.7396 83.4718 88.1759C83.9008 87.0176 84.1011 84.5273 84.1011 80.7338V61.0137H94.0845V78.0697C94.0845 85.1064 93.541 89.9134 92.4254 92.4906C91.0809 95.647 89.1071 98.0794 86.504 99.759C83.9008 101.439 80.5826 102.307 76.5492 102.307C72.5157 102.307 68.6539 101.323 65.965 99.3536C63.2761 97.3845 61.3881 94.6335 60.2724 91.1006C59.5001 88.6682 59.0996 84.2087 59.0996 77.7801V61.0137H59.1282Z" fill="#103595"/>
<path d="M165.256 56.4095L158.104 63.3304C153.241 58.118 147.749 55.5118 141.656 55.5118C135.563 55.5118 132.187 57.2782 128.669 60.84C125.15 64.4018 123.377 68.7744 123.377 73.9868C123.377 79.1991 124.149 80.8497 125.722 83.6586C127.296 86.4675 129.47 88.6972 132.33 90.2899C135.191 91.8826 138.337 92.6934 141.827 92.6934C145.317 92.6934 147.52 92.1432 149.98 91.0139C152.44 89.8845 155.129 87.8575 158.075 84.8748L165.027 92.2011C161.05 96.1394 157.303 98.8614 153.756 100.367C150.237 101.873 146.175 102.655 141.656 102.655C133.303 102.655 126.466 99.9618 121.117 94.6046C115.796 89.2474 113.136 82.3555 113.136 73.9868C113.136 65.618 114.337 63.7358 116.769 59.508C119.2 55.2801 122.661 51.8921 127.181 49.3438C131.701 46.7666 136.564 45.4925 141.799 45.4925C147.034 45.4925 150.495 46.4481 154.614 48.3303C158.705 50.2126 162.252 52.9346 165.227 56.4095H165.256Z" fill="#103595"/>
<path d="M196.436 61.0137H206.419V101.265H200.641C198.324 101.265 196.436 99.3536 196.436 97.008C194.491 98.8902 192.546 100.222 190.572 101.062C188.598 101.902 186.481 102.307 184.193 102.307C179.044 102.307 174.61 100.28 170.862 96.2551C167.115 92.23 165.227 87.2203 165.227 81.1971C165.227 75.174 167.029 69.8747 170.662 65.9075C174.295 61.9403 178.7 59.9422 183.878 59.9422C189.056 59.9422 188.512 60.4056 190.6 61.3032C192.689 62.2299 194.634 63.5909 196.407 65.4152V60.9847L196.436 61.0137ZM185.938 69.2955C182.848 69.2955 180.302 70.3959 178.243 72.5967C176.212 74.7975 175.182 77.6353 175.182 81.0813C175.182 84.5273 176.24 87.4809 178.386 89.7396C180.503 91.9694 183.42 93.1277 186.453 93.0119C189.37 92.896 191.802 91.7956 193.776 89.7107C195.835 87.5099 196.865 84.6141 196.865 81.0234C196.865 77.4326 195.835 74.6817 193.776 72.5099C191.716 70.338 189.113 69.2666 185.938 69.2666V69.2955Z" fill="#103595"/>
<path d="M235.769 66.6315L229.59 72.8864C227.073 70.3671 224.813 69.1219 222.753 69.1219C220.694 69.1219 220.751 69.3536 220.122 69.8458C219.492 70.3381 219.178 70.9173 219.178 71.6412C219.178 72.3652 219.378 72.6837 219.778 73.147C220.179 73.6103 221.18 74.2184 222.753 75.0293L226.415 76.8825C230.277 78.8227 232.908 80.7629 234.339 82.7609C235.769 84.759 236.484 87.1046 236.484 89.7976C236.484 92.4907 235.197 96.371 232.594 98.7456C229.991 101.149 226.529 102.336 222.153 102.336C217.776 102.336 211.712 100.049 208.25 95.4444L214.4 88.6683C215.573 90.0583 216.946 91.1587 218.52 92.0274C220.093 92.8672 221.495 93.3015 222.696 93.3015C223.898 93.3015 225.07 92.983 225.871 92.3459C226.672 91.7089 227.073 90.956 227.073 90.1162C227.073 88.5525 225.614 87.0467 222.725 85.5698L219.349 83.8613C212.913 80.5891 209.709 76.4771 209.709 71.5254C209.709 66.5736 210.911 65.618 213.342 63.3593C215.774 61.1006 218.863 59.9713 222.639 59.9713C226.415 59.9713 227.645 60.5504 229.933 61.7087C232.222 62.867 234.138 64.5176 235.74 66.6605L235.769 66.6315Z" fill="#7FBC03"/>
<path d="M222.153 102.742C216.231 102.742 211.454 100.367 207.907 95.676L207.678 95.3864L214.4 87.9732L214.715 88.3497C215.859 89.6817 217.175 90.7821 218.691 91.5929C221.781 93.2725 224.184 93.0698 225.585 91.9404C226.3 91.3902 226.615 90.7821 226.615 90.0582C226.615 88.6972 225.242 87.2782 222.496 85.8883L219.12 84.1798C212.541 80.8207 209.223 76.5639 209.223 71.4674C209.223 66.3708 210.481 65.3284 212.999 62.9828C215.487 60.6662 218.72 59.4789 222.582 59.4789C226.443 59.4789 227.731 60.087 230.076 61.2453C232.393 62.4036 234.396 64.1411 236.026 66.3129L236.255 66.6025L229.504 73.4365L229.19 73.118C226.787 70.6855 224.584 69.4693 222.667 69.4693C220.751 69.4693 220.837 69.672 220.293 70.1064C219.778 70.5118 219.521 70.9751 219.521 71.5542C219.521 72.1334 219.692 72.394 220.007 72.7705C220.265 73.06 220.951 73.5813 222.868 74.5369L226.529 76.3902C230.42 78.3303 233.137 80.3574 234.625 82.4134C236.112 84.4693 236.856 86.9308 236.856 89.7107C236.856 92.4906 235.483 96.5157 232.822 98.9771C230.162 101.439 226.558 102.684 222.095 102.684L222.153 102.742ZM208.822 95.4733C212.169 99.73 216.632 101.902 222.153 101.902C227.673 101.902 229.79 100.744 232.308 98.4269C234.796 96.1393 236.055 93.2146 236.055 89.7976C236.055 86.3806 235.368 84.9327 233.995 83.0215C232.622 81.0813 229.991 79.1701 226.215 77.2589L222.553 75.4056C220.894 74.5948 219.893 73.9288 219.435 73.4365C218.949 72.9153 218.72 72.3072 218.72 71.6411C218.72 70.9751 219.092 70.0485 219.835 69.4983C220.551 68.9481 221.523 68.6875 222.725 68.6875C224.784 68.6875 227.101 69.9037 229.561 72.2782L235.168 66.6025C233.681 64.6623 231.85 63.1565 229.762 62.0851C227.559 60.9847 225.156 60.4056 222.667 60.4056C219.006 60.4056 216.002 61.506 213.657 63.6778C211.34 65.8496 210.167 68.4847 210.167 71.5253C210.167 76.2454 213.342 80.2705 219.578 83.4558L222.953 85.1643C226.043 86.728 227.53 88.3497 227.53 90.1161C227.53 91.8825 227.073 91.9404 226.157 92.6933C224.47 94.0254 221.723 94.286 218.319 92.4327C216.86 91.6219 215.545 90.6084 214.4 89.3632L208.822 95.5022V95.4733Z" fill="#7FBC03"/>
<path d="M265.691 66.6315L259.512 72.8864C256.995 70.3671 254.735 69.1219 252.675 69.1219C250.616 69.1219 250.673 69.3536 250.044 69.8458C249.414 70.3381 249.1 70.9173 249.1 71.6412C249.1 72.3652 249.3 72.6837 249.7 73.147C250.101 73.6103 251.102 74.2184 252.675 75.0293L256.337 76.8825C260.199 78.8227 262.83 80.7629 264.261 82.7609C265.691 84.759 266.406 87.1046 266.406 89.7976C266.406 92.4907 265.119 96.371 262.516 98.7456C259.913 101.149 256.451 102.336 252.075 102.336C247.698 102.336 241.633 100.049 238.172 95.4444L244.322 88.6683C245.495 90.0583 246.868 91.1587 248.442 92.0274C250.015 92.8672 251.417 93.3015 252.618 93.3015C253.819 93.3015 254.992 92.983 255.793 92.3459C256.594 91.7089 256.995 90.956 256.995 90.1162C256.995 88.5525 255.536 87.0467 252.647 85.5698L249.271 83.8613C242.835 80.5891 239.631 76.4771 239.631 71.5254C239.631 66.5736 240.832 65.618 243.264 63.3593C245.695 61.1006 248.785 59.9713 252.561 59.9713C256.337 59.9713 257.567 60.5504 259.855 61.7087C262.144 62.867 264.06 64.5176 265.662 66.6605L265.691 66.6315Z" fill="#7FBC03"/>
<path d="M252.074 102.742C246.153 102.742 241.376 100.367 237.829 95.676L237.6 95.3864L244.322 87.9732L244.637 88.3497C245.781 89.6817 247.097 90.7821 248.613 91.5929C251.703 93.2725 254.105 93.0698 255.507 91.9404C256.222 91.3902 256.537 90.7821 256.537 90.0582C256.537 88.6972 255.164 87.2782 252.418 85.8883L249.042 84.1798C242.463 80.8207 239.145 76.5639 239.145 71.4674C239.145 66.3708 240.403 65.3284 242.921 62.9828C245.409 60.6662 248.642 59.4789 252.503 59.4789C256.365 59.4789 257.653 60.087 259.998 61.2453C262.315 62.4036 264.318 64.1121 265.948 66.3129L266.177 66.6025L259.426 73.4365L259.111 73.118C256.709 70.6855 254.506 69.4693 252.589 69.4693C250.673 69.4693 250.759 69.672 250.215 70.1064C249.7 70.5118 249.443 70.9751 249.443 71.5542C249.443 72.1334 249.614 72.394 249.929 72.7705C250.186 73.06 250.873 73.5813 252.79 74.5369L256.451 76.3902C260.341 78.3303 263.059 80.3574 264.547 82.4134C266.034 84.4693 266.778 86.9308 266.778 89.7107C266.778 92.4906 265.405 96.5157 262.744 98.9771C260.084 101.439 256.48 102.684 252.017 102.684L252.074 102.742ZM238.773 95.4733C242.12 99.73 246.582 101.902 252.103 101.902C257.624 101.902 259.741 100.744 262.258 98.4269C264.747 96.1393 266.005 93.2146 266.005 89.7976C266.005 86.3806 265.319 84.9327 263.946 83.0215C262.573 81.0813 259.941 79.1701 256.165 77.2589L252.503 75.4056C250.844 74.5948 249.843 73.9288 249.385 73.4365C248.899 72.9153 248.67 72.3072 248.67 71.6411C248.67 70.9751 249.042 70.0485 249.786 69.4983C250.501 68.9481 251.474 68.6875 252.675 68.6875C254.735 68.6875 257.052 69.9037 259.512 72.2782L265.119 66.6025C263.631 64.6623 261.8 63.1565 259.712 62.0851C257.51 60.9847 255.107 60.4056 252.618 60.4056C248.956 60.4056 245.953 61.506 243.607 63.6778C241.29 65.8496 240.117 68.4847 240.117 71.5253C240.117 76.2454 243.292 80.2705 249.528 83.4558L252.904 85.1643C255.993 86.728 257.481 88.3497 257.481 90.1161C257.481 91.8825 257.023 91.9404 256.108 92.6933C254.42 94.0254 251.674 94.286 248.27 92.4327C246.811 91.6509 245.495 90.6084 244.351 89.3632L238.773 95.5022V95.4733Z" fill="#7FBC03"/>
<path d="M298.959 61.0137H308.943V101.265H303.164C300.847 101.265 298.959 99.3536 298.959 97.008C297.014 98.8902 295.069 100.222 293.095 101.062C291.121 101.902 289.005 102.307 286.716 102.307C281.567 102.307 277.133 100.28 273.386 96.2551C269.638 92.23 267.75 87.2203 267.75 81.1971C267.75 75.174 269.553 69.8747 273.186 65.9075C276.819 61.9403 281.224 59.9422 286.401 59.9422C291.579 59.9422 291.036 60.4056 293.124 61.3032C295.212 62.2299 297.157 63.5909 298.931 65.4152V60.9847L298.959 61.0137ZM288.461 69.2955C285.372 69.2955 282.826 70.3959 280.766 72.5967C278.735 74.7975 277.705 77.6353 277.705 81.0813C277.705 84.5273 278.764 87.4809 280.909 89.7396C283.026 91.9694 285.944 93.1277 288.976 93.0119C291.894 92.896 294.325 91.7956 296.299 89.7107C298.359 87.5099 299.389 84.6141 299.389 81.0234C299.389 77.4326 298.359 74.6817 296.299 72.5099C294.239 70.338 291.636 69.2666 288.461 69.2666V69.2955Z" fill="#103595"/>
<path d="M97.7177 25.1063V35.9944C97.6891 35.9944 59.4717 0.637115 59.4717 0.637115L0.658203 50.1836C2.91806 52.1238 5.66422 53.34 8.5248 53.8902V73.3208H14.7895C19.9671 73.3208 24.1722 69.064 24.1722 63.8227V49.3439L59.3573 19.6912L91.0526 49.4307C97.2886 54.7589 107.015 55.6856 113.279 50.3863L113.537 25.1642L97.7177 25.1063Z" fill="#F5A706"/>
<path d="M14.7892 73.7551H8.09544V54.2376C5.17765 53.6295 2.51731 52.3554 0.400481 50.5021L0 50.1546L0.400481 49.8071L59.4429 0L59.7575 0.231657L97.2311 34.9519V24.614C97.2597 24.614 113.966 24.6719 113.966 24.6719L113.708 50.56L113.565 50.7048C107.443 55.8592 97.4314 55.4538 90.7662 49.7492L59.3284 20.2414L24.601 49.5175V63.7936C24.601 69.2666 20.1957 73.7261 14.7892 73.7261V73.7551ZM8.98222 72.8863H14.8178C19.7666 72.8863 23.7714 68.8323 23.7714 63.8226V49.1411L23.9431 48.9963L59.4143 19.0831L91.3956 49.0832C97.6602 54.4693 107.072 54.9326 112.907 50.1546L113.136 25.5696L98.1751 25.5117L98.1179 36.9499L59.4429 1.1583L1.34447 50.1836C3.37549 51.8052 5.8928 52.9345 8.61035 53.4558L8.95362 53.5137V72.8574H8.98222V72.8863Z" fill="#103595"/>
<path d="M47.343 129.846C46.4276 129.846 45.5408 129.672 44.7398 129.296C43.9389 128.919 43.2237 128.398 42.5944 127.761C41.9937 127.095 41.5074 126.342 41.1355 125.473C40.7636 124.605 40.6206 123.678 40.6206 122.694C40.6206 121.709 40.7922 120.782 41.1355 119.914C41.4788 119.045 41.9651 118.292 42.5944 117.626C43.1951 116.96 43.9103 116.468 44.7398 116.091C45.5694 115.715 46.4276 115.541 47.343 115.541C48.2584 115.541 49.4598 115.802 50.4038 116.323C51.3192 116.844 52.0915 117.539 52.7209 118.408L51.262 119.19C50.8043 118.582 50.2322 118.089 49.5456 117.742C48.8591 117.394 48.1153 117.192 47.343 117.192C46.5706 117.192 45.9699 117.336 45.3692 117.626C44.7684 117.916 44.2249 118.321 43.7672 118.813C43.3096 119.305 42.9377 119.914 42.6802 120.58C42.4228 121.246 42.2797 121.941 42.2797 122.694C42.2797 123.446 42.4228 124.17 42.6802 124.836C42.9377 125.502 43.3096 126.082 43.7672 126.603C44.2249 127.124 44.7684 127.5 45.3978 127.79C46.0271 128.08 46.6564 128.224 47.3716 128.224C48.0867 128.224 48.9163 128.051 49.5742 127.674C50.2608 127.298 50.8329 126.834 51.262 126.226L52.7209 127.037C52.1201 127.906 51.3478 128.601 50.4038 129.093C49.4884 129.614 48.4586 129.875 47.343 129.875V129.846Z" fill="#103595"/>
<path d="M78.5517 129.846C77.6363 129.846 76.7495 129.672 75.9486 129.296C75.1476 128.919 74.4039 128.398 73.8031 127.761C73.2024 127.124 72.6875 126.342 72.3442 125.473C72.001 124.605 71.8293 123.678 71.8293 122.694C71.8293 121.709 72.001 120.782 72.3442 119.914C72.6875 119.045 73.1738 118.292 73.8031 117.626C74.4325 116.96 75.1476 116.439 75.9486 116.091C76.7495 115.744 77.6363 115.541 78.5517 115.541C79.4671 115.541 80.3539 115.715 81.1548 116.091C81.9558 116.468 82.6995 116.989 83.3003 117.626C83.901 118.263 84.4159 119.045 84.7592 119.914C85.1024 120.782 85.2741 121.709 85.2741 122.694C85.2741 123.678 85.1024 124.605 84.7592 125.473C84.4159 126.342 83.9296 127.095 83.3003 127.761C82.6709 128.427 81.9558 128.919 81.1548 129.296C80.3539 129.672 79.4671 129.846 78.5517 129.846ZM78.5517 128.195C79.2669 128.195 79.9248 128.051 80.5255 127.761C81.1262 127.472 81.6697 127.066 82.156 126.574C82.6137 126.053 82.9856 125.473 83.2431 124.807C83.5005 124.141 83.6435 123.446 83.6435 122.694C83.6435 121.941 83.5005 121.246 83.2431 120.551C82.9856 119.856 82.6137 119.305 82.156 118.784C81.6983 118.263 81.1548 117.887 80.5255 117.597C79.8962 117.307 79.2382 117.163 78.5517 117.163C77.8652 117.163 77.1786 117.307 76.5779 117.597C75.9772 117.887 75.4337 118.292 74.9474 118.784C74.4897 119.305 74.1178 119.885 73.8604 120.551C73.6029 121.217 73.4599 121.912 73.4599 122.665C73.4599 123.417 73.6029 124.141 73.8604 124.807C74.1178 125.473 74.4897 126.053 74.9474 126.574C75.4051 127.095 75.9486 127.472 76.5779 127.761C77.2072 128.051 77.8652 128.195 78.5517 128.195Z" fill="#103595"/>
<path d="M109.732 129.846C108.988 129.846 108.302 129.73 107.615 129.499C106.929 129.267 106.328 128.919 105.813 128.485C105.298 128.051 104.955 127.529 104.726 126.921L106.271 126.342C106.414 126.719 106.643 127.037 106.986 127.298C107.329 127.558 107.758 127.79 108.245 127.935C108.731 128.08 109.217 128.167 109.732 128.167C110.247 128.167 110.876 128.08 111.363 127.877C111.878 127.674 112.278 127.414 112.593 127.066C112.907 126.719 113.05 126.313 113.05 125.85C113.05 125.387 112.879 124.981 112.564 124.663C112.249 124.344 111.82 124.112 111.305 123.939C110.791 123.765 110.276 123.62 109.703 123.504C108.759 123.36 107.93 123.128 107.158 122.838C106.414 122.549 105.813 122.143 105.384 121.622C104.955 121.101 104.726 120.406 104.726 119.537C104.726 118.668 104.955 118.031 105.413 117.423C105.87 116.815 106.471 116.352 107.243 116.033C107.987 115.715 108.817 115.541 109.675 115.541C110.533 115.541 111.105 115.657 111.792 115.888C112.478 116.12 113.079 116.439 113.594 116.873C114.109 117.307 114.481 117.829 114.709 118.466L113.165 119.045C113.022 118.668 112.793 118.35 112.45 118.06C112.106 117.8 111.677 117.568 111.191 117.423C110.705 117.278 110.218 117.192 109.703 117.192C109.131 117.192 108.588 117.278 108.073 117.481C107.558 117.684 107.158 117.944 106.843 118.292C106.528 118.639 106.385 119.045 106.385 119.508C106.385 119.971 106.528 120.493 106.814 120.782C107.1 121.072 107.501 121.304 107.987 121.448C108.502 121.593 109.046 121.709 109.675 121.825C110.562 121.97 111.391 122.23 112.135 122.549C112.879 122.867 113.508 123.302 113.966 123.852C114.423 124.402 114.652 125.068 114.652 125.85C114.652 126.632 114.423 127.356 113.966 127.964C113.508 128.572 112.907 129.035 112.135 129.354C111.391 129.672 110.562 129.846 109.675 129.846H109.732Z" fill="#103595"/>
<path d="M144.316 115.773V117.423H139.768V129.585H138.137V117.423H133.589V115.773H144.316Z" fill="#103595"/>
<path d="M166.686 115.773H168.66L173.637 129.614H171.892L170.891 126.777H164.483L163.482 129.614H161.737L166.715 115.773H166.686ZM165.056 125.126H170.262L167.659 117.915L165.056 125.126Z" fill="#103595"/>
<path d="M215.402 129.614V115.773H220.208C220.923 115.773 221.581 115.946 222.181 116.323C222.782 116.699 223.24 117.163 223.583 117.8C223.926 118.408 224.098 119.103 224.098 119.856C224.098 120.609 223.955 121.13 223.698 121.68C223.44 122.23 223.068 122.693 222.639 123.041C222.21 123.388 221.667 123.649 221.094 123.794L224.413 129.614H222.525L219.264 123.939H217.032V129.614H215.402ZM217.032 122.259H220.036C220.465 122.259 220.894 122.143 221.266 121.941C221.638 121.709 221.924 121.419 222.153 121.043C222.382 120.666 222.467 120.232 222.467 119.769C222.467 119.305 222.353 118.871 222.153 118.466C221.953 118.06 221.638 117.8 221.266 117.568C220.894 117.336 220.494 117.249 220.036 117.249H217.032V122.288V122.259Z" fill="#103595"/>
<path d="M244.551 129.614V115.773H246.182V129.614H244.551Z" fill="#103595"/>
<path d="M272.728 129.846C271.813 129.846 270.926 129.672 270.125 129.296C269.324 128.919 268.609 128.398 267.979 127.761C267.35 127.095 266.892 126.342 266.549 125.473C266.206 124.605 266.034 123.678 266.034 122.694C266.034 121.709 266.206 120.782 266.549 119.914C266.892 119.045 267.379 118.292 267.979 117.626C268.609 116.96 269.324 116.468 270.125 116.091C270.926 115.715 271.813 115.541 272.728 115.541C273.643 115.541 274.845 115.802 275.789 116.323C276.704 116.844 277.505 117.539 278.106 118.408L276.647 119.19C276.189 118.582 275.617 118.089 274.931 117.742C274.244 117.394 273.5 117.192 272.728 117.192C271.956 117.192 271.355 117.336 270.754 117.626C270.153 117.916 269.61 118.321 269.124 118.813C268.637 119.305 268.294 119.914 268.037 120.58C267.779 121.246 267.636 121.941 267.636 122.694C267.636 123.446 267.779 124.17 268.037 124.836C268.294 125.502 268.666 126.082 269.124 126.603C269.581 127.124 270.125 127.5 270.754 127.79C271.383 128.08 272.013 128.224 272.728 128.224C273.443 128.224 274.244 128.051 274.931 127.674C275.617 127.298 276.189 126.834 276.647 126.226L278.106 127.037C277.505 127.906 276.733 128.601 275.789 129.093C274.873 129.614 273.844 129.875 272.728 129.875V129.846Z" fill="#103595"/>
<path d="M302.049 115.773H304.023L309 129.614H307.255L306.225 126.777H299.817L298.816 129.614H297.071L302.049 115.773ZM300.418 125.126H305.624L303.021 117.915L300.418 125.126Z" fill="#103595"/>
</svg>
