<svg width="213" height="179" viewBox="0 0 213 179" fill="none" xmlns="http://www.w3.org/2000/svg">
<path fill-rule="evenodd" clip-rule="evenodd" d="M90.8188 97.5666C91.0614 96.544 91.2132 95.8313 91.2764 95.4202C91.3375 95.0059 91.4479 94.3827 91.6077 93.549C93.9921 93.0916 96.0886 92.78 97.9089 92.591C99.7293 92.4104 101.494 92.3159 103.187 92.3159C105.115 92.3159 106.881 92.4966 108.496 92.8595C110.099 93.2225 111.363 93.796 112.279 94.5866C113.184 95.3854 113.641 96.5224 113.641 98.0091C113.641 98.8212 113.497 100.875 113.219 104.183C112.933 107.491 112.772 110.917 112.716 114.441C111.383 114.412 110.162 114.396 109.042 114.396C107.922 114.396 106.723 114.412 105.289 114.441C105.522 112.729 105.701 110.74 105.843 108.492L106.184 103.197C105.522 103.551 105.009 103.798 104.662 103.944C104.311 104.082 103.918 104.213 103.477 104.337C103.039 104.453 102.268 104.642 101.165 104.889C100.063 105.134 99.1751 105.353 98.5105 105.534C97.8458 105.721 97.2482 105.925 96.7098 106.165C96.1813 106.396 95.7237 106.657 95.3569 106.948C94.9901 107.238 94.7199 107.543 94.5581 107.861C94.3866 108.179 94.3077 108.522 94.3077 108.89C94.3077 109.485 94.5226 110.002 94.9546 110.43C95.3825 110.864 95.9209 111.162 96.5659 111.336C97.2127 111.504 97.9721 111.59 98.8517 111.59C99.4157 111.59 100.007 111.553 100.627 111.482C101.246 111.416 102.088 111.235 103.135 110.952C102.768 111.757 102.337 112.962 101.844 114.565C100.597 114.739 99.611 114.842 98.8773 114.883C98.1417 114.928 97.4632 114.949 96.8242 114.949C94.6193 114.949 92.8107 114.711 91.3927 114.225C89.9786 113.745 88.9274 112.984 88.2549 111.933C87.5844 110.887 87.2432 109.828 87.2432 108.769C87.2432 108.162 87.3773 107.559 87.6376 106.962C87.8979 106.369 88.2845 105.817 88.7933 105.323C89.3061 104.829 89.9589 104.352 90.7656 103.888C91.5742 103.43 92.7378 102.98 94.2623 102.554C95.7849 102.118 97.7965 101.682 100.305 101.248C100.968 101.132 101.658 100.992 102.374 100.833C103.092 100.666 103.666 100.507 104.098 100.356C104.528 100.197 104.904 99.993 105.216 99.7461C105.532 99.4991 105.764 99.2372 105.906 98.9687C106.06 98.7002 106.131 98.4251 106.131 98.1417C106.131 97.5898 105.906 97.1191 105.466 96.7412C105.019 96.3567 104.437 96.0882 103.727 95.9423C103.021 95.7882 102.242 95.7169 101.378 95.7169C98.187 95.7169 94.6745 96.3335 90.8208 97.5666H90.8188ZM140.205 109.523C140.114 110.105 139.99 110.765 139.813 111.505C139.641 112.238 139.452 113.153 139.264 114.247C136.764 114.719 134.291 114.949 131.861 114.949C130.435 114.949 129.074 114.842 127.764 114.631C126.447 114.421 125.228 114.043 124.1 113.493C122.97 112.949 121.974 112.23 121.114 111.338C120.254 110.446 119.615 109.364 119.187 108.096C118.755 106.825 118.54 105.519 118.54 104.18C118.54 102.395 118.901 100.674 119.609 99.035C120.315 97.3876 121.357 96.0451 122.719 95.0075C124.082 93.9634 125.607 93.2523 127.271 92.8827C128.948 92.5048 130.806 92.3176 132.857 92.3176C133.995 92.3176 135.17 92.3673 136.369 92.4767C137.58 92.5844 139.004 92.7949 140.653 93.1214L141.049 97.7787C138.44 97.0594 136.162 96.6981 134.22 96.6981C133.028 96.6981 131.906 96.8572 130.847 97.1837C129.78 97.5102 128.875 98.0273 128.115 98.7301C127.352 99.4278 126.806 100.24 126.484 101.16C126.159 102.081 125.997 103.024 125.997 103.982C125.997 105.332 126.258 106.493 126.77 107.48C127.289 108.466 128.177 109.228 129.441 109.765C130.695 110.3 132.139 110.571 133.742 110.571C134.531 110.571 135.492 110.491 136.62 110.324C137.75 110.165 138.941 109.896 140.205 109.525V109.523ZM145.566 114.441L146.094 108.912L146.694 98.3074L146.982 89.2298C147.019 87.5906 147.037 86.3227 147.037 85.4294C148.873 85.4576 150.185 85.4741 150.954 85.4741C151.859 85.4741 153.06 85.4576 154.549 85.4294L153.993 92.3358L153.366 103.346L153.107 111.567L153.08 114.439C151.52 114.411 150.293 114.394 149.408 114.394C148.386 114.394 147.112 114.411 145.572 114.439L145.566 114.441ZM153.944 102.342C154.644 103.242 155.056 103.755 155.18 103.893L159.645 109.067C160.184 109.677 160.774 110.387 161.42 111.2C162.055 112.013 162.88 113.095 163.894 114.442C165.56 114.414 166.949 114.398 168.069 114.398C169.189 114.398 170.534 114.414 172.112 114.442C166.304 108.051 162.763 104.032 161.482 102.386L163.032 100.863L171.664 92.8264C169.899 92.8546 168.436 92.8678 167.28 92.8678C166.438 92.8678 165.103 92.8529 163.282 92.8264C162.326 93.8788 161.527 94.7341 160.898 95.3937C160.273 96.0617 159.724 96.6202 159.267 97.076L153.942 102.343L153.944 102.342Z" fill="#029DDB"/>
<path fill-rule="evenodd" clip-rule="evenodd" d="M15.4366 104.531C-23.9428 34.2851 78.0014 12.7289 164.404 42.5258C90.7005 18.7668 -15.8172 35.7254 15.4366 104.531Z" fill="#029DDB"/>
<path fill-rule="evenodd" clip-rule="evenodd" d="M197.563 74.469C236.945 144.715 135 166.271 48.5955 136.474C124.895 159.363 231.154 141.881 197.563 74.469Z" fill="#029DDB"/>
<path fill-rule="evenodd" clip-rule="evenodd" d="M56.648 71.4973L66.4539 61.8163L61.8291 106.356C61.6062 110.74 63.2392 113.854 65.9628 116.234L45.4438 116.164C48.2227 114.243 52.1711 111.01 52.9758 104.814L56.648 71.4973Z" fill="#7FBC03"/>
<path fill-rule="evenodd" clip-rule="evenodd" d="M50.9445 106.23C43.1364 102.754 40.969 100.162 42.174 92.596C45.655 79.8274 73.5895 75.0458 86.4918 82.9234C108.395 96.3003 51.8458 110.856 30.4077 111.595C49.5067 107.594 66.7479 103.203 76.3487 97.2069C94.501 84.8046 66.6019 73.3917 47.6528 90.4149C41.8446 97.3777 46.6983 104.039 51.4434 103.908C52.7175 103.871 51.4277 104.887 50.9445 106.232V106.23Z" fill="#029DDB"/>
<path fill-rule="evenodd" clip-rule="evenodd" d="M61.6281 43.6462C66.7756 43.6462 70.9488 47.1533 70.9488 51.4791C70.9488 55.8049 66.7756 59.312 61.6281 59.312C56.4806 59.312 52.3093 55.8049 52.3093 51.4791C52.3093 47.1533 56.4825 43.6462 61.6281 43.6462Z" fill="#7FBC03"/>
<path fill-rule="evenodd" clip-rule="evenodd" d="M70.4812 76.3799C70.7494 74.2021 70.9723 71.7574 71.1518 69.0459C71.3332 66.3278 71.4338 63.8997 71.4555 61.7517C72.5087 61.7716 73.3409 61.7815 73.9721 61.7815C74.7136 61.7815 75.4946 61.7716 76.3289 61.7517L76.1494 64.2146C76.5004 63.7919 76.816 63.4571 77.0783 63.2085C77.3465 62.9583 77.6897 62.7163 78.1039 62.4776C78.52 62.2373 78.9618 62.045 79.4371 61.9025C79.9084 61.7583 80.435 61.6439 81.0247 61.5561C81.6065 61.4732 82.2219 61.4285 82.8549 61.4285C83.8726 61.4285 84.841 61.5362 85.7699 61.75C86.6909 61.9671 87.4463 62.3102 88.0123 62.776C88.5823 63.2467 88.959 63.7571 89.1384 64.3157C89.3179 64.8709 89.4126 65.4593 89.4126 66.0825C89.4126 66.3377 89.3929 66.7504 89.3593 67.3156L88.9964 73.5955C88.9491 74.4673 88.9215 75.3954 88.9097 76.3816C88.0123 76.3617 87.2451 76.3518 86.6081 76.3518C85.7462 76.3518 84.8765 76.3617 83.9988 76.3816C84.0876 75.5479 84.198 74.096 84.3262 72.021C84.4603 69.9525 84.5254 68.5785 84.5254 67.904C84.5254 67.1498 84.3854 66.5399 84.0994 66.0792C83.8115 65.6167 83.3756 65.2637 82.78 65.0234C82.1804 64.7847 81.5375 64.6654 80.8433 64.6654C80.1491 64.6654 79.5239 64.7748 78.9283 64.9936C78.3386 65.214 77.8238 65.5388 77.3919 65.9615C76.9363 66.3924 76.5872 66.9228 76.3348 67.5543C76.0705 68.2272 75.8792 69.336 75.749 70.8823C75.6287 72.2513 75.5341 74.0811 75.4571 76.3799C74.5834 76.3601 73.7946 76.3501 73.0885 76.3501C72.3824 76.3501 71.5009 76.3601 70.4792 76.3799H70.4812ZM92.9054 76.3799C93.1736 74.2021 93.3965 71.7574 93.5759 69.0459C93.7574 66.3278 93.856 63.8997 93.8797 61.7517C94.9328 61.7716 95.7651 61.7815 96.3962 61.7815C97.1378 61.7815 97.9188 61.7716 98.755 61.7517L98.5755 64.2146C98.9266 63.7919 99.2421 63.4571 99.5044 63.2085C99.7727 62.9583 100.116 62.7163 100.53 62.4776C100.944 62.2373 101.388 62.045 101.861 61.9025C102.333 61.7583 102.859 61.6439 103.449 61.5561C104.033 61.4732 104.646 61.4285 105.281 61.4285C106.299 61.4285 107.267 61.5362 108.196 61.75C109.119 61.9671 109.872 62.3102 110.436 62.776C111.01 63.2467 111.385 63.7571 111.565 64.3157C111.746 64.8709 111.841 65.4593 111.841 66.0825C111.841 66.3377 111.821 66.7504 111.787 67.3156L111.425 73.5955C111.377 74.4673 111.35 75.3954 111.338 76.3816C110.436 76.3617 109.673 76.3518 109.036 76.3518C108.174 76.3518 107.305 76.3617 106.427 76.3816C106.516 75.5479 106.626 74.096 106.754 72.021C106.888 69.9525 106.954 68.5785 106.954 67.904C106.954 67.1498 106.814 66.5399 106.528 66.0792C106.242 65.6167 105.806 65.2637 105.208 65.0234C104.609 64.7847 103.968 64.6654 103.269 64.6654C102.571 64.6654 101.952 64.7748 101.354 64.9936C100.767 65.214 100.252 65.5388 99.822 65.9615C99.3644 66.3924 99.0153 66.9228 98.7649 67.5543C98.5026 68.2272 98.3093 69.336 98.1791 70.8823C98.0588 72.2513 97.9641 74.0811 97.8872 76.3799C97.0135 76.3601 96.2246 76.3501 95.5166 76.3501C94.8086 76.3501 93.929 76.3601 92.9074 76.3799H92.9054ZM124.814 61.4285C126.127 61.4285 127.382 61.5926 128.583 61.9224C129.788 62.2505 130.808 62.7428 131.648 63.3908C132.484 64.0372 133.115 64.8295 133.541 65.7609C133.961 66.6974 134.17 67.6786 134.17 68.7144C134.17 69.8083 133.947 70.8641 133.504 71.8784C133.06 72.8944 132.411 73.7695 131.569 74.5121C130.723 75.2595 129.674 75.8115 128.413 76.1811C127.153 76.549 125.808 76.7346 124.384 76.7346C123.059 76.7346 121.802 76.5689 120.613 76.2407C119.416 75.9126 118.4 75.4104 117.558 74.7524C116.712 74.0911 116.069 73.2872 115.631 72.3392C115.195 71.3878 114.973 70.3967 114.973 69.3625C114.973 68.3283 115.172 67.3007 115.574 66.346C115.971 65.3897 116.596 64.5361 117.442 63.7853C118.296 63.0411 119.381 62.461 120.706 62.0483C122.025 61.6357 123.398 61.4318 124.81 61.4318L124.814 61.4285ZM124.814 64.4002C123.822 64.4002 122.938 64.6008 122.157 65.0101C121.38 65.4162 120.797 66.0195 120.418 66.8233C120.039 67.6288 119.848 68.5023 119.848 69.4487C119.848 70.279 120.004 71.0182 120.315 71.6713C120.631 72.3193 121.142 72.8447 121.856 73.2458C122.562 73.6485 123.408 73.8491 124.388 73.8491C125.368 73.8491 126.268 73.6419 127.025 73.2259C127.778 72.8099 128.352 72.1967 128.731 71.3912C129.109 70.5807 129.301 69.689 129.301 68.7161C129.301 67.9222 129.157 67.2012 128.859 66.5482C128.559 65.9002 128.064 65.3814 127.364 64.9886C126.664 64.5958 125.82 64.3985 124.814 64.3985V64.4002ZM141.777 76.3799C141.026 74.3596 139 69.4818 135.701 61.75C136.706 61.7699 137.568 61.7798 138.298 61.7798C139.067 61.7798 139.862 61.7699 140.675 61.75L144.684 72.7552L145.234 71.4989L149.088 63.2665C149.268 62.8804 149.496 62.3749 149.77 61.75C150.703 61.7699 151.534 61.7798 152.263 61.7798C152.993 61.7798 153.843 61.7699 154.79 61.75L152.005 66.8283L147.966 74.5253L147.061 76.3799C146.033 76.3601 145.173 76.3501 144.479 76.3501C143.749 76.3501 142.844 76.3601 141.775 76.3799H141.777ZM157.277 64.9289C157.44 64.2477 157.545 63.772 157.584 63.4969C157.628 63.2218 157.697 62.8091 157.803 62.2506C159.355 61.9472 160.72 61.7368 161.913 61.6124C163.099 61.4915 164.243 61.4268 165.351 61.4268C166.605 61.4268 167.761 61.5478 168.806 61.7931C169.856 62.0351 170.682 62.4262 171.276 62.9616C171.865 63.5019 172.163 64.2693 172.163 65.2753C172.163 65.8206 172.078 67.2095 171.895 69.4454C171.715 71.6829 171.607 73.9933 171.575 76.3783C170.706 76.3584 169.911 76.3485 169.181 76.3485C168.451 76.3485 167.668 76.3584 166.736 76.3783C166.887 75.2214 167.008 73.8806 167.096 72.3591L167.323 68.7841C166.887 69.0227 166.56 69.1901 166.325 69.2879C166.099 69.3807 165.842 69.4719 165.554 69.5531C165.268 69.6326 164.761 69.7603 164.043 69.9277C163.318 70.0934 162.742 70.2409 162.304 70.3636C161.87 70.4912 161.476 70.6321 161.123 70.7895C160.779 70.947 160.48 71.1243 160.241 71.3199C160.002 71.5171 159.827 71.721 159.716 71.9398C159.606 72.1552 159.553 72.3906 159.553 72.6408C159.553 73.0419 159.693 73.3916 159.973 73.68C160.253 73.975 160.608 74.1756 161.03 74.2933C161.456 74.406 161.957 74.464 162.531 74.464C162.898 74.464 163.284 74.4408 163.692 74.3894C164.095 74.3413 164.645 74.2187 165.331 74.0231C165.091 74.5667 164.813 75.3805 164.493 76.4645C163.681 76.5822 163.038 76.6551 162.554 76.6849C162.077 76.7147 161.633 76.7297 161.219 76.7297C159.783 76.7297 158.598 76.5689 157.673 76.2391C156.746 75.9142 156.062 75.4004 155.626 74.6894C155.188 73.9833 154.965 73.2657 154.965 72.5513C154.965 72.1386 155.052 71.7309 155.224 71.3282C155.391 70.9271 155.644 70.5575 155.977 70.2243C156.308 69.8862 156.736 69.5614 157.259 69.2531C157.786 68.9448 158.543 68.6399 159.543 68.3515C160.533 68.0564 161.848 67.7614 163.481 67.4631C163.915 67.3885 164.363 67.2957 164.836 67.1847C165.304 67.0753 165.678 66.9675 165.957 66.8648C166.237 66.757 166.475 66.6195 166.686 66.4537C166.889 66.2863 167.041 66.109 167.136 65.9283C167.233 65.7477 167.28 65.5604 167.28 65.3681C167.28 64.9853 167.136 64.6604 166.842 64.3969C166.552 64.1317 166.179 63.9461 165.71 63.8433C165.25 63.7406 164.736 63.6925 164.178 63.6925C162.093 63.6925 159.793 64.1052 157.277 64.9273V64.9289Z" fill="#7FBC03"/>
<path d="M28.1614 122.961C27.6486 122.961 27.2463 123.213 26.9504 123.717C26.6546 124.221 26.5087 124.92 26.5087 125.819C26.5087 127.685 27.0885 128.62 28.2462 128.62C28.755 128.62 29.2855 128.484 29.8397 128.212V129.546C29.3723 129.806 28.7728 129.937 28.043 129.937C26.9623 129.937 26.132 129.576 25.5521 128.853C24.9723 128.131 24.6824 127.117 24.6824 125.807C24.6824 124.498 24.9802 123.479 25.5778 122.748C26.1753 122.017 27.0057 121.65 28.0687 121.65C28.4197 121.65 28.755 121.69 29.0765 121.771C29.398 121.853 29.7411 121.993 30.1099 122.196L29.5183 123.414C29.321 123.3 29.112 123.197 28.8891 123.102C28.6663 123.009 28.4237 122.961 28.1614 122.961Z" fill="#029DDB"/>
<path d="M36.8173 126.744C36.8173 127.751 36.5649 128.535 36.0561 129.096C35.5492 129.656 34.853 129.936 33.9694 129.936C33.4093 129.936 32.9163 129.808 32.4863 129.55C32.0584 129.293 31.727 128.923 31.4963 128.439C31.2655 127.955 31.1492 127.392 31.1492 126.744C31.1492 125.748 31.3996 124.969 31.9045 124.408C32.4074 123.846 33.1036 123.568 33.9971 123.568C34.8905 123.568 35.5433 123.853 36.0541 124.425C36.5649 124.997 36.8193 125.769 36.8193 126.744H36.8173ZM32.9321 126.744C32.9321 127.383 33.0149 127.867 33.1806 128.194C33.3462 128.52 33.6144 128.684 33.9813 128.684C34.6814 128.684 35.0305 128.038 35.0305 126.744C35.0305 126.101 34.9477 125.62 34.7781 125.302C34.6104 124.983 34.3442 124.826 33.9813 124.826C33.6184 124.826 33.3462 124.985 33.1806 125.302C33.0149 125.62 32.9321 126.101 32.9321 126.744Z" fill="#029DDB"/>
<path d="M41.9945 129.826V126.165C41.9945 125.719 41.9314 125.385 41.8032 125.156C41.677 124.929 41.4719 124.814 41.1859 124.814C40.8092 124.814 40.5351 124.97 40.3595 125.285C40.184 125.6 40.0972 126.13 40.0972 126.876V129.826H38.3518V123.684H39.7363L39.9473 124.473H40.0578C40.2156 124.19 40.4404 123.969 40.7342 123.808C41.0261 123.648 41.3713 123.568 41.7637 123.568C42.4284 123.568 42.9274 123.76 43.2567 124.142C43.5881 124.524 43.7537 125.083 43.7537 125.817V129.825H41.9945V129.826Z" fill="#029DDB"/>
<path d="M48.0119 128.696C48.2564 128.696 48.5227 128.645 48.8047 128.542V129.689C48.5207 129.855 48.0947 129.937 47.5267 129.937C46.8916 129.937 46.4222 129.778 46.1146 129.462C45.8089 129.144 45.657 128.666 45.657 128.03V124.849H44.947V124.193L45.8582 123.663L46.3039 122.361H47.4202V123.686H48.7455V124.849H47.4202V128.08C47.4202 128.492 47.6174 128.698 48.0099 128.698L48.0119 128.696Z" fill="#029DDB"/>
<path d="M50.0786 122.08C50.0786 121.838 50.1614 121.645 50.3311 121.505C50.5007 121.362 50.7354 121.292 51.0371 121.292C51.3211 121.292 51.5479 121.364 51.7195 121.505C51.8911 121.645 51.9759 121.838 51.9759 122.08C51.9759 122.322 51.8891 122.524 51.7136 122.661C51.5381 122.799 51.3132 122.869 51.0371 122.869C50.7472 122.869 50.5164 122.799 50.3409 122.661C50.1654 122.524 50.0786 122.33 50.0786 122.08ZM51.895 129.826H50.1496V123.684H51.895V129.826Z" fill="#029DDB"/>
<path d="M56.3977 129.936C55.4846 129.936 54.7628 129.664 54.2362 129.117C53.7076 128.572 53.4453 127.798 53.4453 126.798C53.4453 125.799 53.684 124.992 54.1612 124.422C54.6385 123.851 55.3012 123.566 56.1552 123.566C56.9519 123.566 57.5791 123.81 58.0386 124.297C58.4981 124.785 58.7269 125.467 58.7269 126.346V127.128H55.2183C55.2302 127.675 55.3643 128.083 55.6187 128.35C55.8711 128.617 56.2222 128.749 56.6679 128.749C57.2359 128.749 57.8177 128.6 58.4133 128.303V129.512C57.8532 129.795 57.1827 129.936 56.3997 129.936H56.3977ZM56.1413 124.698C55.8928 124.698 55.6858 124.809 55.524 125.032C55.3623 125.254 55.2676 125.598 55.242 126.066H57.0131C57.0052 125.618 56.9243 125.277 56.7705 125.046C56.6166 124.814 56.4076 124.7 56.1394 124.7L56.1413 124.698Z" fill="#029DDB"/>
<path d="M63.8329 129.826V126.165C63.8329 125.719 63.7698 125.385 63.6416 125.156C63.5154 124.929 63.3102 124.814 63.0243 124.814C62.6476 124.814 62.3734 124.97 62.1979 125.285C62.0224 125.6 61.9356 126.13 61.9356 126.876V129.826H60.1902V123.684H61.5747L61.7857 124.473H61.8962C62.0539 124.19 62.2788 123.969 62.5726 123.808C62.8645 123.648 63.2097 123.568 63.6021 123.568C64.2668 123.568 64.7657 123.76 65.0951 124.142C65.4264 124.524 65.5921 125.083 65.5921 125.817V129.825H63.8329V129.826Z" fill="#029DDB"/>
<path d="M70.0081 129.936C69.0949 129.936 68.3731 129.664 67.8465 129.117C67.318 128.572 67.0557 127.798 67.0557 126.798C67.0557 125.799 67.2943 124.992 67.7716 124.422C68.2489 123.851 68.9115 123.566 69.7655 123.566C70.5623 123.566 71.1894 123.81 71.649 124.297C72.1085 124.785 72.3373 125.467 72.3373 126.346V127.128H68.8287C68.8405 127.675 68.9746 128.083 69.2291 128.35C69.4815 128.617 69.8326 128.749 70.2783 128.749C70.8463 128.749 71.4281 128.6 72.0237 128.303V129.512C71.4636 129.795 70.793 129.936 70.0101 129.936H70.0081ZM69.7517 124.698C69.5032 124.698 69.2961 124.809 69.1344 125.032C68.9727 125.254 68.878 125.598 68.8524 126.066H70.6234C70.6155 125.618 70.5347 125.277 70.3808 125.046C70.227 124.814 70.0179 124.7 69.7497 124.7L69.7517 124.698Z" fill="#029DDB"/>
<path d="M75.8793 128.641C75.6525 129.384 75.2679 130.264 74.7236 131.282H73.3923C73.6763 130.304 73.8972 129.382 74.055 128.514H75.7866L75.8773 128.641H75.8793Z" fill="#029DDB"/>
<path d="M83.3697 129.936C83.0541 129.936 82.776 129.876 82.5335 129.757C82.2909 129.637 82.0641 129.427 81.855 129.125H81.7643C81.8333 129.626 81.8688 129.926 81.8688 130.03V132.54H80.1116V123.684H81.4625L81.7643 124.483H81.8432C82.2061 123.873 82.7327 123.568 83.4229 123.568C84.1132 123.568 84.6082 123.845 84.9849 124.397C85.3616 124.95 85.549 125.733 85.549 126.744C85.549 127.755 85.3537 128.52 84.9652 129.087C84.5747 129.652 84.0442 129.936 83.3717 129.936H83.3697ZM82.8313 124.814C82.4901 124.814 82.2435 124.947 82.0937 125.214C81.9438 125.481 81.8629 125.922 81.855 126.54V126.734C81.855 127.41 81.9319 127.902 82.0858 128.212C82.2376 128.52 82.492 128.675 82.8451 128.675C83.4584 128.675 83.7641 128.023 83.7641 126.722C83.7641 126.082 83.6892 125.603 83.5393 125.288C83.3874 124.972 83.1527 124.814 82.8332 124.814H82.8313Z" fill="#029DDB"/>
<path d="M90.1996 123.568C90.4146 123.568 90.6236 123.595 90.8307 123.651L90.6276 125.073C90.5053 125.037 90.3456 125.018 90.1483 125.018C89.7243 125.018 89.3969 125.159 89.1701 125.441C88.9413 125.723 88.8289 126.132 88.8289 126.667V129.826H87.0835V123.684H88.5212L88.7185 124.644H88.7776C88.9689 124.258 89.18 123.981 89.4068 123.817C89.6356 123.651 89.8979 123.568 90.1996 123.568Z" fill="#029DDB"/>
<path d="M97.3332 126.744C97.3332 127.751 97.0808 128.535 96.5719 129.096C96.0651 129.656 95.3689 129.936 94.4853 129.936C93.9252 129.936 93.4321 129.808 93.0022 129.55C92.5742 129.293 92.2429 128.923 92.0122 128.439C91.7814 127.955 91.665 127.392 91.665 126.744C91.665 125.748 91.9155 124.969 92.4204 124.408C92.9233 123.846 93.6195 123.568 94.5129 123.568C95.4063 123.568 96.0591 123.853 96.57 124.425C97.0808 124.997 97.3352 125.769 97.3352 126.744H97.3332ZM93.4479 126.744C93.4479 127.383 93.5308 127.867 93.6964 128.194C93.8621 128.52 94.1303 128.684 94.4972 128.684C95.1973 128.684 95.5464 128.038 95.5464 126.744C95.5464 126.101 95.4635 125.62 95.2939 125.302C95.1263 124.983 94.86 124.826 94.4972 124.826C94.1343 124.826 93.8621 124.985 93.6964 125.302C93.5308 125.62 93.4479 126.101 93.4479 126.744Z" fill="#029DDB"/>
<path d="M101.408 128.696C101.652 128.696 101.919 128.645 102.201 128.542V129.689C101.917 129.855 101.491 129.937 100.923 129.937C100.288 129.937 99.8182 129.778 99.5106 129.462C99.2049 129.144 99.053 128.666 99.053 128.03V124.849H98.343V124.193L99.2542 123.663L99.6999 122.361H100.816V123.686H102.142V124.849H100.816V128.08C100.816 128.492 101.013 128.698 101.406 128.698L101.408 128.696Z" fill="#029DDB"/>
<path d="M106.232 129.936C105.319 129.936 104.597 129.664 104.07 129.117C103.542 128.572 103.279 127.798 103.279 126.798C103.279 125.799 103.518 124.992 103.995 124.422C104.472 123.851 105.135 123.566 105.989 123.566C106.786 123.566 107.413 123.81 107.873 124.297C108.332 124.785 108.561 125.467 108.561 126.346V127.128H105.052C105.064 127.675 105.198 128.083 105.453 128.35C105.705 128.617 106.056 128.749 106.502 128.749C107.07 128.749 107.652 128.6 108.247 128.303V129.512C107.687 129.795 107.017 129.936 106.234 129.936H106.232ZM105.975 124.698C105.727 124.698 105.52 124.809 105.358 125.032C105.196 125.254 105.102 125.598 105.076 126.066H106.847C106.839 125.618 106.758 125.277 106.604 125.046C106.451 124.814 106.242 124.7 105.973 124.7L105.975 124.698Z" fill="#029DDB"/>
<path d="M115.286 123.696V124.556L114.414 124.722C114.586 124.978 114.671 125.303 114.671 125.693C114.671 126.344 114.462 126.853 114.042 127.221C113.622 127.589 113.036 127.773 112.283 127.773C112.064 127.773 111.902 127.758 111.797 127.73C111.715 127.793 111.636 127.862 111.561 127.939C111.486 128.015 111.448 128.111 111.448 128.225C111.448 128.482 111.713 128.612 112.241 128.612H113.298C113.919 128.612 114.397 128.751 114.732 129.034C115.067 129.316 115.235 129.739 115.235 130.305C115.235 131.018 114.951 131.57 114.383 131.959C113.813 132.349 112.996 132.545 111.93 132.545C111.121 132.545 110.498 132.397 110.06 132.1C109.622 131.805 109.403 131.383 109.403 130.836C109.403 130.493 109.527 130.193 109.778 129.934C110.028 129.674 110.373 129.487 110.815 129.369C110.592 129.294 110.411 129.182 110.267 129.026C110.125 128.872 110.052 128.691 110.052 128.486C110.052 128.361 110.074 128.249 110.117 128.147C110.16 128.046 110.224 127.95 110.304 127.861C110.385 127.77 110.549 127.637 110.799 127.461C110.498 127.307 110.259 127.07 110.083 126.75C109.908 126.43 109.821 126.076 109.821 125.686C109.821 125.013 110.03 124.493 110.45 124.125C110.87 123.757 111.472 123.573 112.255 123.573C112.403 123.573 112.574 123.586 112.766 123.614C112.957 123.641 113.105 123.669 113.206 123.701H115.284L115.286 123.696ZM110.989 130.72C110.989 130.962 111.079 131.149 111.261 131.278C111.442 131.409 111.701 131.474 112.038 131.474C112.567 131.474 112.963 131.389 113.229 131.22C113.493 131.051 113.626 130.819 113.626 130.526C113.626 130.294 113.555 130.131 113.413 130.035C113.271 129.941 113.004 129.893 112.616 129.893H111.77C111.533 129.893 111.344 129.967 111.204 130.116C111.062 130.266 110.989 130.466 110.989 130.72ZM111.525 125.691C111.525 126.415 111.768 126.777 112.255 126.777C112.742 126.777 112.963 126.41 112.963 125.68C112.963 124.949 112.726 124.554 112.255 124.554C111.784 124.554 111.525 124.932 111.525 125.69V125.691Z" fill="#029DDB"/>
<path d="M119.172 129.936C118.259 129.936 117.537 129.664 117.01 129.117C116.482 128.572 116.219 127.798 116.219 126.798C116.219 125.799 116.458 124.992 116.935 124.422C117.412 123.851 118.075 123.566 118.929 123.566C119.726 123.566 120.353 123.81 120.813 124.297C121.272 124.785 121.501 125.467 121.501 126.346V127.128H117.992C118.004 127.675 118.138 128.083 118.393 128.35C118.645 128.617 118.996 128.749 119.442 128.749C120.01 128.749 120.592 128.6 121.187 128.303V129.512C120.627 129.795 119.957 129.936 119.174 129.936H119.172ZM118.915 124.698C118.667 124.698 118.46 124.809 118.298 125.032C118.136 125.254 118.042 125.598 118.016 126.066H119.787C119.779 125.618 119.698 125.277 119.544 125.046C119.391 124.814 119.182 124.7 118.913 124.7L118.915 124.698Z" fill="#029DDB"/>
<path d="M130.399 129.936C129.486 129.936 128.764 129.664 128.238 129.117C127.709 128.572 127.447 127.798 127.447 126.798C127.447 125.799 127.686 124.992 128.163 124.422C128.64 123.851 129.303 123.566 130.157 123.566C130.954 123.566 131.581 123.81 132.04 124.297C132.5 124.785 132.729 125.467 132.729 126.346V127.128H129.22C129.232 127.675 129.366 128.083 129.62 128.35C129.873 128.617 130.224 128.749 130.67 128.749C131.238 128.749 131.819 128.6 132.415 128.303V129.512C131.855 129.795 131.184 129.936 130.401 129.936H130.399ZM130.143 124.698C129.895 124.698 129.687 124.809 129.526 125.032C129.364 125.254 129.269 125.598 129.244 126.066H131.015C131.007 125.618 130.926 125.277 130.772 125.046C130.618 124.814 130.409 124.7 130.141 124.7L130.143 124.698Z" fill="#029DDB"/>
<path d="M136.505 122.08C136.505 121.838 136.588 121.645 136.758 121.505C136.927 121.362 137.162 121.292 137.464 121.292C137.748 121.292 137.975 121.364 138.146 121.505C138.318 121.645 138.403 121.838 138.403 122.08C138.403 122.322 138.316 122.524 138.14 122.661C137.965 122.799 137.74 122.869 137.464 122.869C137.174 122.869 136.943 122.799 136.768 122.661C136.592 122.524 136.505 122.33 136.505 122.08ZM138.322 129.826H136.576V123.684H138.322V129.826Z" fill="#029DDB"/>
<path d="M143.769 129.826V126.165C143.769 125.719 143.706 125.385 143.578 125.156C143.452 124.929 143.247 124.814 142.961 124.814C142.584 124.814 142.31 124.97 142.134 125.285C141.959 125.6 141.872 126.13 141.872 126.876V129.826H140.126V123.684H141.511L141.722 124.473H141.832C141.99 124.19 142.215 123.969 142.509 123.808C142.801 123.648 143.146 123.568 143.538 123.568C144.203 123.568 144.702 123.76 145.031 124.142C145.363 124.524 145.528 125.083 145.528 125.817V129.825H143.769V129.826Z" fill="#029DDB"/>
<path d="M150.494 124.848H149.285V129.826H147.54V124.848H146.694V124.113L147.54 123.672V123.21C147.54 122.526 147.708 122.018 148.045 121.685C148.382 121.352 148.922 121.185 149.672 121.185C150.143 121.185 150.583 121.268 150.991 121.433L150.532 122.552C150.313 122.464 150.09 122.419 149.861 122.419C149.66 122.419 149.514 122.486 149.421 122.618C149.331 122.751 149.283 122.955 149.283 123.23V123.682H150.492V124.846L150.494 124.848Z" fill="#029DDB"/>
<path d="M156.985 126.744C156.985 127.751 156.733 128.535 156.224 129.096C155.717 129.656 155.021 129.936 154.137 129.936C153.577 129.936 153.084 129.808 152.654 129.55C152.226 129.293 151.895 128.923 151.664 128.439C151.433 127.955 151.317 127.392 151.317 126.744C151.317 125.748 151.567 124.969 152.072 124.408C152.575 123.846 153.271 123.568 154.165 123.568C155.058 123.568 155.711 123.853 156.222 124.425C156.733 124.997 156.987 125.769 156.987 126.744H156.985ZM153.1 126.744C153.1 127.383 153.183 127.867 153.348 128.194C153.514 128.52 153.782 128.684 154.149 128.684C154.849 128.684 155.198 128.038 155.198 126.744C155.198 126.101 155.115 125.62 154.946 125.302C154.778 124.983 154.512 124.826 154.149 124.826C153.786 124.826 153.514 124.985 153.348 125.302C153.183 125.62 153.1 126.101 153.1 126.744Z" fill="#029DDB"/>
<path d="M161.635 123.568C161.85 123.568 162.059 123.595 162.267 123.651L162.063 125.073C161.941 125.037 161.781 125.018 161.584 125.018C161.16 125.018 160.833 125.159 160.606 125.441C160.377 125.723 160.265 126.132 160.265 126.667V129.826H158.519V123.684H159.957L160.154 124.644H160.213C160.405 124.258 160.616 123.981 160.843 123.817C161.071 123.651 161.334 123.568 161.635 123.568Z" fill="#029DDB"/>
<path d="M170.613 129.826V126.165C170.613 125.265 170.349 124.814 169.82 124.814C169.436 124.814 169.159 124.975 168.994 125.297C168.828 125.618 168.743 126.134 168.743 126.843V129.826H166.984V126.165C166.984 125.265 166.716 124.814 166.177 124.814C165.801 124.814 165.529 124.974 165.357 125.293C165.187 125.613 165.101 126.14 165.101 126.876V129.826H163.355V123.684H164.74L164.951 124.473H165.061C165.237 124.161 165.475 123.931 165.779 123.787C166.083 123.643 166.408 123.57 166.753 123.57C167.645 123.57 168.24 123.924 168.538 124.634H168.603C168.974 123.924 169.572 123.57 170.394 123.57C171.043 123.57 171.532 123.762 171.867 124.143C172.203 124.526 172.37 125.085 172.37 125.819V129.826H170.611H170.613Z" fill="#029DDB"/>
<path d="M177.674 129.826L177.325 128.988H177.285C177.027 129.349 176.761 129.596 176.484 129.732C176.208 129.868 175.861 129.936 175.441 129.936C174.903 129.936 174.479 129.768 174.171 129.429C173.861 129.091 173.708 128.62 173.708 128.017C173.708 127.37 173.919 126.89 174.341 126.575C174.763 126.26 175.394 126.086 176.234 126.054L177.204 126.021V125.58C177.204 125.007 176.908 124.72 176.319 124.72C175.881 124.72 175.378 124.864 174.81 125.149L174.206 124.135C174.932 123.749 175.723 123.556 176.575 123.556C177.35 123.556 177.938 123.744 178.342 124.115C178.747 124.488 178.95 125.017 178.95 125.701V129.825H177.67L177.674 129.826ZM176.159 128.789C176.478 128.789 176.733 128.668 176.924 128.428C177.114 128.186 177.208 127.866 177.208 127.465V126.946L176.67 126.967C176.271 126.986 175.98 127.082 175.794 127.254C175.609 127.427 175.516 127.683 175.516 128.025C175.516 128.532 175.731 128.786 176.159 128.786V128.789Z" fill="#029DDB"/>
</svg>
