<svg width="273" height="116" viewBox="0 0 273 116" fill="none" xmlns="http://www.w3.org/2000/svg">
<g clip-path="url(#clip0_1_219)">
<path d="M0.0582267 0H29.1165C70.2967 0 101.379 18.6339 101.379 58C101.379 97.3661 70.2384 116 29.0583 116H0L0.0582267 0ZM28.7196 107.011C58.02 107.011 79.403 86.1471 79.403 58C79.403 29.8529 58.0215 8.989 28.7196 8.989H21.0153C18.1637 8.989 15.8515 11.2882 15.8515 14.1225V101.878C15.8515 104.713 18.1637 107.011 21.0153 107.011H28.7196Z" fill="#103595"/>
<path d="M148.36 103.531V115.869L103.852 116V27.8698L148.36 27.7391V40.077H121.358C118.368 40.077 115.945 42.0442 115.945 44.4708V60.1084C115.945 62.535 118.368 64.5022 121.358 64.5022H148.36V76.84H121.358C118.368 76.84 115.945 78.8072 115.945 81.2338V99.1377C115.945 101.564 118.368 103.531 121.358 103.531H148.36Z" fill="#103595"/>
<path d="M182.971 103.71L182.977 116H155.778V27.7391H167.597L167.591 99.2678C167.591 101.722 169.883 103.711 172.71 103.711H182.971V103.71Z" fill="#103595"/>
<path d="M211.014 45.4736V116H196.868V45.4736C196.868 42.7129 194.06 40.4743 190.595 40.4743H173.086V27.7391H234.903V40.4743H217.289C213.824 40.4743 211.016 42.7129 211.016 45.4736H211.014Z" fill="#103595"/>
<path d="M270.427 27.7743L254.545 27.7391C254.001 27.7391 253.209 27.7391 252.874 29.1223L217.76 113.138C217.3 114.034 217.84 115.895 218.832 115.998C218.884 116.003 218.935 115.998 218.988 115.998H270.461C271.307 115.998 271.993 114.995 271.993 114.139V104.13L271.959 29.3262C271.959 28.4699 271.274 27.7743 270.427 27.7743ZM256.774 103.697H235.087C233.904 103.697 232.522 102.193 233.118 100.986L256.526 41.3246C257.315 39.7281 259.463 39.8524 259.463 41.7015V101.384C259.463 102.385 257.618 103.697 256.774 103.697Z" fill="#103595"/>
<path d="M242.908 103.391C242.908 103.391 236.562 100.82 237.463 94.5955C237.683 93.0765 238.792 91.8197 240.132 90.1589C242.391 87.3588 241.306 86.1207 241.306 86.1207C241.306 86.1207 244.698 87.9506 243.727 93.2069C243.727 93.2069 244.771 92.7655 244.984 91.3769C245.141 90.3581 244.857 87.8216 245.127 86.7712C245.673 84.6475 247.879 83.6172 249.563 83.2174C249.563 83.2174 247.961 85.0674 250.63 88.9795C250.63 88.9795 252.268 91.9229 251.52 95.3621C251.52 95.3621 253.204 94.3762 252.16 91.0717C251.2 88.0337 252.587 87.6024 252.587 87.6024C252.587 87.6024 253.049 89.7576 255.114 91.7037C258.732 95.1142 257.001 101.246 254.118 103.39C254.118 103.39 255.874 99.6698 253.015 97.3812C253.015 97.3812 252.411 100.409 250.666 100.157C248.921 99.9048 248.37 95.7261 248.584 92.8228C248.584 92.8228 245.554 93.9492 245.932 98.1278C246.039 99.3058 243.974 100.216 243.12 98.3958C242.684 97.4672 242.782 96.6762 242.705 96.1087C242.705 96.1087 239.062 98.4961 242.907 103.39L242.908 103.391Z" fill="#F5A706"/>
<path d="M220.067 105.913H223.441V107.632H221.365V109.35H224.997V106.104H228.532V107.632H226.586V109.35H230.023V105.913H233.59V107.632H231.873V109.35H235.245V105.913H238.65V107.632H237.029V109.35H240.596V105.913H243.969V107.632H242.314V109.35H245.72V105.913H247.082" fill="#344784"/>
<path d="M220.067 105.913H223.441V107.632H221.365V109.35H224.997V106.104H228.532V107.632H226.586V109.35H230.023V105.913H233.59V107.632H231.873V109.35H235.245V105.913H238.65V107.632H237.029V109.35H240.596V105.913H243.969V107.632H242.314V109.35H245.72V105.913H247.082" stroke="white" stroke-width="0.3" stroke-miterlimit="10"/>
<path d="M245.986 105.913H249.359V107.632H247.283V109.35H250.915V106.104H254.45V107.632H252.504V109.35H255.942V105.913H259.508V107.632H257.791V109.35H261.163V105.913H264.568V107.632H262.947V109.35H266.514V105.913H269.887V107.632H268.234V109.35H271.638V105.913H273" fill="#344784"/>
<path d="M245.986 105.913H249.359V107.632H247.283V109.35H250.915V106.104H254.45V107.632H252.504V109.35H255.942V105.913H259.508V107.632H257.791V109.35H261.163V105.913H264.568V107.632H262.947V109.35H266.514V105.913H269.887V107.632H268.234V109.35H271.638V105.913H273" stroke="white" stroke-width="0.3" stroke-miterlimit="10"/>
</g>
<defs>
<clipPath id="clip0_1_219">
<rect width="273" height="116" fill="white"/>
</clipPath>
</defs>
</svg>
