<?xml version="1.0" standalone="no"?>
<!DOCTYPE svg PUBLIC "-//W3C//DTD SVG 20010904//EN"
 "http://www.w3.org/TR/2001/REC-SVG-20010904/DTD/svg10.dtd">
<svg version="1.0" xmlns="http://www.w3.org/2000/svg"
 width="666.000000pt" height="375.000000pt" viewBox="0 0 666.000000 375.000000"
 preserveAspectRatio="xMidYMid meet">

<g transform="translate(0.000000,375.000000) scale(0.100000,-0.100000)"
fill="#000000" stroke="none">
<path d="M2910 1611 c-112 -22 -161 -128 -110 -239 27 -59 86 -86 176 -80 84
5 119 30 118 82 -1 20 3 36 7 36 5 0 9 -6 9 -14 0 -23 51 -78 87 -92 49 -21
122 -18 162 7 60 36 70 56 71 134 0 94 -6 111 -47 136 -98 61 -248 26 -271
-63 l-8 -30 -79 -2 -80 -1 -3 -32 c-3 -31 -1 -33 27 -33 26 0 31 -4 31 -25 0
-49 -91 -40 -110 10 -17 46 -12 84 16 112 24 24 30 25 85 19 l59 -6 0 35 c0
20 -6 37 -12 39 -30 10 -96 13 -128 7z m400 -91 c25 -25 27 -95 4 -128 -18
-26 -65 -30 -85 -5 -22 25 -17 122 6 139 26 19 52 17 75 -6z"/>
<path d="M2187 1603 c-4 -3 -7 -73 -7 -154 l0 -147 33 -3 c65 -8 77 -1 77 42
l0 39 45 0 c58 0 106 20 133 55 l22 28 0 -82 c0 -65 3 -81 15 -81 8 -1 53 -1
100 -1 193 0 175 -4 175 36 l0 35 -90 0 c-89 0 -90 0 -90 25 0 24 2 25 64 25
67 0 78 8 68 53 -3 14 -15 17 -68 17 -57 0 -64 2 -64 20 0 17 8 19 83 22 l82
3 0 35 0 35 -135 0 -135 0 -5 -35 c-4 -27 -7 -31 -12 -17 -15 35 -85 57 -189
57 -53 0 -99 -3 -102 -7z m187 -79 c33 -33 11 -64 -46 -64 -38 0 -38 0 -38 40
0 39 1 40 34 40 19 0 42 -7 50 -16z"/>
<path d="M2429 1193 c-14 -2 -40 -17 -57 -33 -26 -23 -32 -37 -32 -69 0 -94
66 -144 170 -126 36 6 40 10 40 36 0 30 -1 30 -42 24 -49 -6 -91 10 -96 39
-11 55 30 88 96 78 29 -4 32 -2 32 22 0 15 -6 26 -14 26 -7 0 -26 2 -42 4 -16
2 -41 2 -55 -1z"/>
<path d="M2623 1189 c-104 -30 -95 -200 13 -222 82 -18 147 35 147 119 0 53
-28 89 -82 104 -41 11 -35 11 -78 -1z m83 -86 c8 -31 -13 -76 -38 -81 -45 -9
-67 83 -26 112 27 19 55 6 64 -31z"/>
<path d="M3125 1191 c-74 -18 -95 -44 -95 -116 0 -38 5 -52 28 -75 53 -53 174
-51 180 2 3 25 1 26 -48 25 -43 -2 -55 2 -71 22 -24 29 -24 43 -1 71 15 18 28
22 65 22 44 -1 47 1 47 23 0 17 -6 25 -17 25 -10 0 -27 2 -38 4 -11 3 -33 1
-50 -3z"/>
<path d="M3968 1193 c-15 -2 -41 -17 -58 -33 -60 -56 -31 -168 51 -190 74 -20
132 13 150 84 l11 43 36 -18 c21 -9 49 -22 65 -28 15 -6 27 -15 27 -21 0 -13
-71 -13 -105 0 -25 10 -26 9 -23 -23 3 -31 5 -32 60 -41 47 -7 64 -5 95 10 39
20 49 39 39 79 -6 23 -18 31 -99 64 -44 18 -23 34 35 28 46 -6 49 -5 46 16 -6
44 -134 42 -170 -3 l-18 -22 -31 26 c-17 14 -37 26 -44 26 -7 0 -19 2 -27 3
-7 2 -25 2 -40 0z m73 -80 c13 -36 11 -51 -11 -73 -24 -24 -34 -25 -54 -4 -16
16 -21 71 -8 90 20 30 59 23 73 -13z"/>
<path d="M2800 1080 l0 -110 30 0 c29 0 30 1 30 50 0 28 4 50 9 50 5 0 26 -22
46 -50 32 -43 41 -50 71 -50 l34 0 0 110 0 110 -34 0 c-34 0 -35 -1 -38 -47
l-3 -47 -35 47 c-31 41 -40 46 -72 47 l-38 0 0 -110z"/>
<path d="M3250 1080 l0 -110 40 0 c39 0 40 1 40 35 0 22 5 35 13 35 7 0 21
-16 31 -35 17 -31 24 -35 58 -35 l39 0 -23 39 -22 38 22 28 c29 37 28 61 -4
90 -24 22 -36 25 -110 25 l-84 0 0 -110z m145 35 c0 -15 -8 -21 -32 -23 -30
-3 -33 -1 -33 23 0 24 3 26 33 23 24 -2 32 -8 32 -23z"/>
<path d="M3480 1080 l0 -110 101 0 100 0 -3 28 c-3 26 -6 27 -60 30 -42 2 -58
7 -58 17 0 9 14 15 43 17 35 2 43 7 45 26 3 20 -1 22 -42 22 -34 0 -46 4 -46
15 0 12 13 15 55 15 52 0 55 1 55 25 0 25 0 25 -95 25 l-95 0 0 -110z"/>
<path d="M3682 1168 c2 -18 11 -24 36 -26 l32 -3 0 -85 0 -84 35 0 34 0 3 83
c3 81 3 82 31 85 21 3 27 9 27 28 0 24 -1 24 -101 24 -98 0 -100 0 -97 -22z"/>
</g>
</svg>
